<svg width="1740" height="1670" viewBox="0 0 1740 1670" fill="none" xmlns="http://www.w3.org/2000/svg">
<g clip-path="url(#clip0_38_12)">
<path d="M1740 0H0V1670H1740V0Z" fill="white"/>
<path d="M1740 0H0V1670H1740V0Z" fill="white"/>
<mask id="mask0_38_12" style="mask-type:luminance" maskUnits="userSpaceOnUse" x="75" y="88" width="1590" height="1526">
<path d="M75.4546 88.0403H1664.55V1613.19H75.4546V88.0403Z" fill="white"/>
</mask>
<g mask="url(#mask0_38_12)">
<mask id="mask1_38_12" style="mask-type:luminance" maskUnits="userSpaceOnUse" x="75" y="88" width="1590" height="1526">
<path d="M870 88.0403C431.194 88.0403 75.4546 429.451 75.4546 850.621C75.4546 1271.77 431.194 1613.19 870 1613.19C1308.81 1613.19 1664.55 1271.77 1664.55 850.621C1664.55 429.451 1308.81 88.0403 870 88.0403Z" fill="white"/>
</mask>
<g mask="url(#mask1_38_12)">
<mask id="mask2_38_12" style="mask-type:luminance" maskUnits="userSpaceOnUse" x="74" y="84" width="1592" height="1533">
<path d="M1665.76 84.6133H74.2402V1616.56H1665.76V84.6133Z" fill="white"/>
</mask>
<g mask="url(#mask2_38_12)">
<mask id="mask3_38_12" style="mask-type:luminance" maskUnits="userSpaceOnUse" x="75" y="88" width="1590" height="1526">
<path d="M75.4546 88.0403H1664.55V1613.19H75.4546V88.0403Z" fill="white"/>
</mask>
<g mask="url(#mask3_38_12)">
<mask id="mask4_38_12" style="mask-type:luminance" maskUnits="userSpaceOnUse" x="75" y="88" width="1590" height="1526">
<path d="M870 88.0403C431.194 88.0403 75.4546 429.451 75.4546 850.621C75.4546 1271.77 431.194 1613.19 870 1613.19C1308.81 1613.19 1664.55 1271.77 1664.55 850.621C1664.55 429.451 1308.81 88.0403 870 88.0403Z" fill="white"/>
</mask>
<g mask="url(#mask4_38_12)">
<path d="M75.4546 88.0403H1664.55V1613.19H75.4546V88.0403Z" fill="#F9CC02"/>
</g>
</g>
</g>
</g>
</g>
<mask id="mask5_38_12" style="mask-type:luminance" maskUnits="userSpaceOnUse" x="75" y="75" width="1591" height="1527">
<path d="M75.4546 75.5675H1665.76V1601.95H75.4546V75.5675Z" fill="white"/>
</mask>
<g mask="url(#mask5_38_12)">
<path d="M869.982 75.5675C431.883 75.5675 75.4546 417.674 75.4546 838.131C75.4546 1258.62 431.883 1600.7 869.982 1600.7C1308.08 1600.7 1664.51 1258.62 1664.51 838.131C1664.51 417.674 1308.08 75.5675 869.982 75.5675ZM869.982 1580.83C443.301 1580.83 96.1715 1247.65 96.1715 838.149C96.1715 428.633 443.32 95.4683 869.982 95.4683C1296.66 95.4683 1643.81 428.633 1643.81 838.149C1643.81 1247.65 1296.66 1580.83 869.982 1580.83Z" fill="#E6AF0E"/>
</g>
<path d="M869.982 135.113C466.084 135.113 137.478 450.482 137.478 838.131C137.478 1225.8 466.084 1541.17 869.982 1541.17C1273.9 1541.17 1602.49 1225.8 1602.49 838.131C1602.49 450.5 1273.9 135.113 869.982 135.113Z" fill="#E6AF0E"/>
<mask id="mask6_38_12" style="mask-type:luminance" maskUnits="userSpaceOnUse" x="311" y="302" width="1119" height="1073">
<path d="M311.931 302.531H1429.01V1374.67H311.931V302.531Z" fill="white"/>
</mask>
<g mask="url(#mask6_38_12)">
<path d="M1264.6 459.389C1159.18 358.232 1019.06 302.531 869.982 302.531C720.922 302.531 580.779 358.232 475.382 459.389C370.004 560.563 311.931 695.068 311.931 838.131C311.931 981.195 370.004 1115.7 475.382 1216.86C580.779 1318.03 720.922 1373.73 869.982 1373.73C1019.06 1373.73 1159.18 1318.03 1264.6 1216.86C1369.98 1115.7 1428.03 981.195 1428.03 838.131C1428.03 695.068 1369.98 560.563 1264.6 459.389ZM869.982 1362.16C568.926 1362.16 323.984 1127.08 323.984 838.131C323.984 549.186 568.926 314.099 869.982 314.099C1171.04 314.099 1415.98 549.186 1415.98 838.131C1415.98 1127.08 1171.04 1362.16 869.982 1362.16Z" fill="white"/>
</g>
<path d="M1370.47 869.374C1366.97 872.401 1363.43 875.411 1359.95 878.316L1346.36 875.028C1348.19 879.012 1350.19 883.065 1351.87 887.153L1343.86 897.903L1357.85 897.364C1360.66 900.93 1363.49 904.549 1366.3 908.237L1370.07 895.051C1374.49 893.52 1378.93 891.919 1383.37 890.301C1379.53 887.831 1375.4 885.396 1371.43 883.013L1370.47 869.374Z" fill="white"/>
<path d="M1360.52 938.992C1356.57 941.515 1352.61 943.968 1348.7 946.368L1335.76 941.202L1339.4 953.97C1336.23 957.206 1332.98 960.355 1329.81 963.486L1343.75 964.912C1345.98 968.844 1348.19 972.81 1350.4 976.828L1356.18 964.338C1360.81 963.434 1365.46 962.494 1370.07 961.485C1366.5 958.476 1362.91 955.518 1359.3 952.579L1360.52 938.992Z" fill="white"/>
<path d="M1340.04 1006.49C1335.74 1008.4 1331.48 1010.3 1327.2 1012.11L1315.2 1005.17L1316.84 1018.3C1313.23 1021.07 1309.53 1023.73 1305.91 1026.39L1319.48 1029.76C1321.09 1033.94 1322.67 1038.18 1324.25 1042.5L1331.88 1030.96C1336.56 1030.74 1341.36 1030.48 1346.03 1030.11C1342.95 1026.62 1339.87 1023.19 1336.75 1019.78L1340.04 1006.49Z" fill="white"/>
<path d="M1309.44 1070.37C1304.89 1071.67 1300.38 1072.94 1295.88 1074.14L1285.06 1065.58L1284.66 1078.8C1280.68 1081.03 1276.6 1083.15 1272.63 1085.26L1285.53 1090.51C1286.49 1094.88 1287.4 1099.29 1288.31 1103.77L1297.6 1093.42C1302.3 1093.85 1307.05 1094.23 1311.74 1094.55C1309.24 1090.68 1306.7 1086.84 1304.13 1083.05L1309.44 1070.37Z" fill="white"/>
<path d="M1255.52 1131.11L1246.09 1121.14L1243.7 1134.17L1230.81 1138.89L1242.8 1145.86C1243.09 1150.32 1243.32 1154.82 1243.54 1159.38L1254.3 1150.42C1258.89 1151.5 1263.48 1152.53 1268.12 1153.54C1266.25 1149.36 1264.31 1145.2 1262.33 1141.08L1269.46 1129.27C1264.78 1129.93 1260.12 1130.52 1255.52 1131.11Z" fill="white"/>
<path d="M1206.94 1181.86L1199.13 1170.67C1197.72 1174.81 1196.34 1179.07 1194.76 1183.23L1181.33 1186.12L1192.12 1194.69C1191.74 1199.15 1191.32 1203.65 1190.85 1208.19L1202.81 1200.8C1207.16 1202.49 1211.58 1204.16 1216.02 1205.79C1214.86 1201.46 1213.52 1197.02 1212.2 1192.69L1221.03 1181.96C1216.3 1181.96 1211.58 1181.93 1206.94 1181.86Z" fill="white"/>
<path d="M1151.23 1225.33L1145.17 1213.19C1143.14 1217.08 1141.19 1221.17 1138.98 1224.96L1125.24 1225.97L1134.61 1235.96C1133.57 1240.32 1132.47 1244.71 1131.31 1249.13L1144.25 1243.47C1148.33 1245.75 1152.42 1248.01 1156.56 1250.22C1156.07 1245.79 1155.43 1241.24 1154.78 1236.77L1165.11 1227.35C1160.44 1226.72 1155.8 1226.04 1151.23 1225.33Z" fill="white"/>
<path d="M1085.4 1247.7C1082.79 1251.25 1080.27 1255.06 1077.48 1258.48L1063.74 1257.56L1071.5 1268.75C1069.79 1272.92 1068.05 1277.13 1066.22 1281.34L1079.89 1277.53C1083.55 1280.37 1087.26 1283.17 1091.02 1285.93C1091.2 1281.48 1091.29 1276.96 1091.31 1272.4L1102.94 1264.5C1098.41 1263.23 1093.92 1261.89 1089.49 1260.57L1085.4 1247.7Z" fill="white"/>
<path d="M1021 1273.44C1017.86 1276.59 1014.78 1280 1011.5 1282.99L998.071 1280.14L1004.03 1292.32C1001.71 1296.2 999.34 1300.11 996.893 1304.01L1010.99 1302.2C1014.18 1305.52 1017.45 1308.79 1020.75 1312.08C1021.62 1307.7 1022.39 1303.21 1023.12 1298.7L1035.84 1292.53C1031.55 1290.63 1027.31 1288.7 1023.16 1286.75L1021 1273.44Z" fill="white"/>
<path d="M953.357 1289.83C949.786 1292.53 946.197 1295.36 942.518 1297.99L929.649 1293.24L933.691 1306.11C930.809 1309.63 927.873 1313.14 924.846 1316.66L939.092 1316.86C941.757 1320.6 944.476 1324.33 947.212 1328.03C948.735 1323.81 950.185 1319.4 951.581 1315.09L965.102 1310.81C961.151 1308.31 957.236 1305.8 953.429 1303.26L953.357 1289.83Z" fill="white"/>
<path d="M883.92 1296.58L871.957 1303.14C867.897 1301.14 863.892 1298.81 859.922 1296.67L861.989 1309.99C858.617 1313.04 855.174 1316.1 851.657 1319.14L865.704 1321.4C867.771 1325.46 869.891 1329.62 872.066 1333.55C874.205 1329.48 876.289 1325.41 878.337 1321.34L892.384 1319.06C888.85 1316.01 885.37 1312.97 881.981 1309.91L883.92 1296.58Z" fill="white"/>
<path d="M814.175 1293.71L801.361 1298.46C799.512 1297.16 797.663 1295.95 795.833 1294.6L790.431 1290.48L790.468 1303.96C786.679 1306.48 782.819 1309 778.886 1311.51L792.443 1315.8C793.875 1320.1 795.379 1324.29 796.92 1328.55C799.657 1324.81 802.321 1321.09 804.968 1317.37L819.178 1317.13C816.151 1313.66 813.178 1310.1 810.26 1306.58L814.175 1293.71Z" fill="white"/>
<path d="M745.662 1281.15L732.268 1284.02L727.374 1279.45C725.761 1277.88 724.22 1276.23 722.662 1274.63L720.632 1287.97C716.481 1289.92 712.276 1291.87 708.017 1293.8L720.758 1299.94C721.538 1304.34 722.39 1308.76 723.26 1313.16C726.522 1309.87 729.73 1306.57 732.902 1303.24C737.633 1303.8 742.291 1304.57 747.022 1304.97C744.484 1301.26 742.128 1297.19 739.79 1293.35L745.662 1281.15Z" fill="white"/>
<path d="M666.094 1260.03L661.961 1254.81C660.602 1253.06 659.333 1251.18 658.046 1249.39L654.004 1262.31C649.6 1263.65 645.141 1264.99 640.628 1266.29C644.507 1268.9 648.349 1271.58 652.3 1274.16C652.409 1278.61 652.572 1283.08 652.772 1287.59C656.505 1284.8 660.185 1281.97 663.828 1279.15C668.414 1280.37 672.89 1281.83 677.53 1282.8C675.591 1278.79 673.869 1274.47 672.129 1270.31L679.778 1259.09L666.094 1260.03Z" fill="white"/>
<path d="M604.306 1227L601.007 1221.26L597.944 1215.33L591.981 1227.54C587.431 1228.27 582.809 1228.96 578.151 1229.61L588.483 1239.04C587.903 1243.47 587.395 1247.91 586.906 1252.41C591.002 1250.15 595.098 1247.89 599.14 1245.59C603.49 1247.44 607.695 1249.47 612.118 1251.14C610.831 1246.9 609.779 1242.36 608.692 1238.01L617.972 1227.95L604.306 1227Z" fill="white"/>
<path d="M548.173 1185.7C547.375 1183.63 546.541 1181.63 545.798 1179.52L543.66 1173.23L535.938 1184.46C531.316 1184.55 526.622 1184.62 521.928 1184.62L530.736 1195.37C529.45 1199.72 528.308 1204.02 527.13 1208.4C531.534 1206.75 535.92 1205.06 540.252 1203.34C544.258 1205.79 548.173 1208.33 552.251 1210.68C551.653 1206.24 551.272 1201.63 550.873 1197.2L561.585 1188.54L548.173 1185.7Z" fill="white"/>
<path d="M496.281 1124.05L486.91 1134.1C482.325 1133.56 477.685 1132.97 473.008 1132.33L480.15 1144.18C478.174 1148.33 476.398 1152.4 474.603 1156.58C479.225 1155.55 483.811 1154.49 488.378 1153.41L499.126 1162.32C499.271 1157.8 499.525 1153.24 499.797 1148.79L511.705 1141.71L498.836 1137.04C497.785 1132.8 497.06 1128.36 496.281 1124.05Z" fill="white"/>
<path d="M456.823 1068.8L446.074 1077.43C441.598 1076.26 437.103 1075.01 432.571 1073.72L437.864 1086.44C435.29 1090.27 432.825 1094.11 430.451 1097.94C435.181 1097.57 439.894 1097.17 444.552 1096.7L453.832 1107.02C454.702 1102.53 455.626 1098.09 456.569 1093.69L469.419 1088.37L457.384 1081.95C456.968 1077.67 456.986 1073.15 456.823 1068.8Z" fill="white"/>
<path d="M424.723 1021.78C424.868 1019.6 425.085 1017.41 425.375 1015.2L426.209 1008.65L414.247 1015.67C410.005 1013.86 405.728 1012.04 401.432 1010.12L404.731 1023.43C401.595 1026.86 398.569 1030.32 395.65 1033.78C400.381 1034.08 405.112 1034.34 409.788 1034.53L417.437 1046.05C418.977 1041.71 420.554 1037.45 422.149 1033.26L435.67 1029.76L424.723 1021.78Z" fill="white"/>
<path d="M411.22 967.087L401.65 957.606C402.538 953.379 403.934 949.047 405.094 944.837L392.17 950.108C388.237 947.742 384.304 945.307 380.353 942.802L381.567 956.44C377.924 959.398 374.462 962.372 371 965.382C375.64 966.356 380.262 967.278 384.884 968.13L390.666 980.603C392.859 976.55 395.07 972.549 397.3 968.6L411.22 967.087Z" fill="white"/>
<path d="M382.637 901.174L396.629 901.609L388.636 890.893C389.488 888.84 390.249 886.822 391.137 884.787L393.929 878.733L380.335 882.143C376.819 879.238 373.32 876.28 369.822 873.271L368.88 886.909C364.91 889.327 361.068 891.78 357.135 894.285C361.575 895.885 365.998 897.434 370.42 898.947C371.689 903.348 372.904 907.732 374.245 912.116C376.982 908.393 379.809 904.757 382.637 901.174Z" fill="white"/>
<path d="M368.463 842.028C371.562 838.757 374.934 835.539 378.305 832.373L392.044 834.722L385.845 822.997L389.252 817.308C390.376 815.412 391.536 813.551 392.805 811.689L378.831 813.186C375.822 809.846 372.831 806.436 369.841 802.957L368.3 809.637C367.756 811.863 367.267 814.09 366.922 816.334C362.681 818.178 358.44 820.074 354.199 822.023C358.313 824.232 362.446 826.372 366.596 828.476C367.176 833.034 367.539 837.557 368.463 842.028Z" fill="white"/>
<path d="M373.085 765.051L373.194 771.888C376.891 769.087 380.371 766.321 384.286 763.677L397.518 767.922L393.204 755.501C396.068 752.057 398.877 748.612 401.759 745.272L387.784 744.837C385.156 741.062 382.854 737.305 380.371 733.426L377.816 739.81C376.964 741.95 376.293 744.124 375.532 746.281C371.037 747.499 366.56 748.786 362.047 750.126C365.799 752.857 369.551 755.571 373.321 758.215L373.085 765.051Z" fill="white"/>
<path d="M388.455 703.174C392.533 700.93 396.484 698.704 400.653 696.599L413.141 702.67C412.253 698.373 411.546 694.111 410.749 689.745L420.772 680.838L407.051 678.438C404.967 674.315 403.281 670.279 401.451 666.121L397.916 672.071L394.708 678.159C390.086 678.733 385.428 679.377 380.752 680.038C384.033 683.274 387.349 686.492 390.648 689.64C389.688 694.111 389.108 698.651 388.455 703.174Z" fill="white"/>
<path d="M414.084 637.331C418.452 635.679 422.729 634.043 427.134 632.547L438.589 640.306C438.353 635.922 438.299 631.608 438.19 627.189L449.464 619.796L436.251 615.499C434.819 611.15 433.767 606.906 432.571 602.522L428.167 607.932L424.034 613.499C419.376 613.429 414.682 613.394 409.951 613.412C412.706 617.082 415.461 620.718 418.271 624.302C416.657 628.546 415.407 632.947 414.084 637.331Z" fill="white"/>
<path d="M449.446 575.802C454.031 574.793 458.454 573.732 463.094 572.897L473.244 582.186C473.697 577.855 474.277 573.541 474.839 569.157L487.128 563.416L474.694 557.31C473.969 552.822 473.552 548.473 473.026 543.985L467.879 548.717C466.157 550.3 464.598 551.987 462.949 553.622C458.345 552.892 453.705 552.213 449.047 551.57C451.204 555.588 453.397 559.554 455.626 563.503C453.343 567.452 451.403 571.644 449.446 575.802Z" fill="white"/>
<path d="M521.492 505.036C521.511 500.548 521.728 496.147 521.891 491.624C518.067 494.268 514.116 496.842 510.454 499.73C505.996 498.391 501.519 497.069 497.006 495.781C498.546 500.061 500.141 504.305 501.736 508.498L497.64 514.064L493.779 519.84C498.474 519.474 502.987 519.022 507.754 518.883L516.345 529.46L519.916 516.795C524.302 515.439 528.579 514.047 532.947 512.829L521.492 505.036Z" fill="white"/>
<path d="M575.74 459.824C576.502 455.475 577.299 451.057 578.169 446.621C574 448.743 569.65 450.691 565.609 453.057C561.404 451.109 557.18 449.178 552.903 447.299C553.773 451.752 554.715 456.154 555.676 460.555L550.764 465.478C549.151 467.148 547.629 468.905 546.07 470.627C550.746 470.888 555.332 471.131 560.044 471.653L566.968 483.308L572.387 471.271C576.937 470.54 581.323 469.705 585.89 469.166L575.74 459.824Z" fill="white"/>
<path d="M644.851 433.365L636.224 422.701C637.638 418.492 639.106 414.264 640.628 409.968L633.886 412.194C631.638 412.925 629.373 413.673 627.198 414.56C623.355 412.055 619.44 409.55 615.525 407.08C615.724 411.603 615.96 416.126 616.25 420.596C612.498 423.397 608.746 426.163 605.212 429.207L612.027 430.582L618.878 432.182L623.971 444.672L631.149 433.487C635.789 433.452 640.229 433.174 644.851 433.365Z" fill="white"/>
<path d="M701.727 394.416C703.757 390.449 705.86 386.466 708.017 382.465C703.377 383.369 698.628 384.013 694.042 385.126C690.635 382.099 687.155 379.073 683.621 376.098C683.131 380.621 682.678 385.092 682.279 389.58C678.147 391.841 673.996 394.016 670.045 396.538L676.588 398.852L683.131 401.426L686.249 414.491L695.057 404.436C699.625 405.027 704.066 405.358 708.615 406.193L701.727 394.416Z" fill="white"/>
<path d="M778.868 364.738C774.137 364.965 769.334 364.912 764.621 365.417C761.703 361.938 758.731 358.476 755.704 354.997C754.508 359.398 753.402 363.764 752.315 368.131C747.856 369.766 743.451 371.366 739.138 373.315L745.246 376.533C747.276 377.629 749.306 378.829 751.318 379.977L752.423 393.355L762.664 384.657C767.105 385.874 771.436 386.883 775.805 388.275L770.784 375.646C773.448 372.027 776.131 368.392 778.868 364.738Z" fill="white"/>
<path d="M851.658 357.119L844.589 356.319L837.484 355.849C835.128 352.005 832.717 348.143 830.234 344.281C828.403 348.456 826.609 352.614 824.905 356.771C822.567 357.293 820.247 357.745 817.963 358.267L811.076 360.094C814.828 362.842 818.489 365.382 822.132 368.339L821.171 381.717L832.644 374.602L845.096 379.96L842.033 366.896C845.187 363.416 848.395 360.372 851.658 357.119Z" fill="white"/>
<path d="M924.846 359.589L921.421 358.685L917.959 357.937L911.017 356.458C909.259 352.3 907.446 348.125 905.561 343.968C903.133 347.812 900.74 351.674 898.42 355.553C893.689 355.832 888.959 356.545 884.246 357.032C887.563 360.25 890.789 363.469 893.961 366.669L891.007 379.873C895.121 377.785 899.236 376.15 903.423 374.324L914.95 381.438L913.881 368.061C917.469 365.156 921.131 362.216 924.846 359.589Z" fill="white"/>
<path d="M983.644 367.243C982.538 362.877 981.378 358.493 980.164 354.092C977.173 357.571 974.237 361.033 971.337 364.53L957.073 364.06C959.828 367.73 962.564 371.366 965.211 374.985L960.299 387.631L966.86 385.561L973.458 383.804L983.734 392.52L984.731 379.125C988.719 376.829 992.797 374.41 996.893 372.271C992.543 370.462 988.084 368.931 983.644 367.243Z" fill="white"/>
<path d="M1053.9 388.118C1053.48 383.648 1052.99 379.125 1052.46 374.602C1048.97 377.629 1045.56 380.586 1042.13 383.7L1028.12 381.195C1030.3 385.213 1032.42 389.214 1034.48 393.181L1027.69 404.975C1032.2 404.21 1036.75 403.479 1041.26 403.027L1050.11 413.099L1053.12 399.982C1057.43 398.278 1061.82 396.503 1066.22 394.903C1062.16 392.589 1058.01 390.415 1053.9 388.118Z" fill="white"/>
<path d="M1120.18 418.648C1120.43 414.143 1120.63 409.637 1120.81 405.079C1116.9 407.602 1113.07 410.037 1109.2 412.647L1095.71 408.193C1097.25 412.473 1098.74 416.717 1100.17 420.944L1091.65 431.66L1098.54 431.521C1100.84 431.486 1103.09 431.608 1105.37 431.625L1112.59 442.828L1117.57 430.286C1122.06 429.19 1126.7 428.024 1131.29 427.085C1127.7 424.215 1123.9 421.501 1120.18 418.648Z" fill="white"/>
<path d="M1181.12 458.137C1182.06 453.718 1182.95 449.282 1183.8 444.811C1179.56 446.708 1175.35 448.656 1171.17 450.656L1158.48 444.377C1159.37 448.83 1160.2 453.231 1160.98 457.615L1150.94 467.026L1157.79 467.844L1164.53 468.922L1169.99 481.012L1176.82 469.287C1181.44 468.87 1186.25 468.313 1190.87 468.07C1187.75 464.643 1184.38 461.477 1181.12 458.137Z" fill="white"/>
<path d="M1241.63 514.012L1239.57 511.246L1235.44 505.679C1237.03 501.452 1238.59 497.173 1240.11 492.876C1235.62 494.181 1231.16 495.538 1226.74 496.912C1222.91 494.181 1219 491.571 1215.15 488.945C1215.35 493.468 1215.53 497.938 1215.64 502.374L1204.28 510.307C1206.47 510.898 1208.74 511.438 1210.91 512.081L1217.4 514.099L1221.01 526.798L1229.53 516.152C1234.19 516.343 1238.99 516.5 1243.59 516.917L1241.63 514.012Z" fill="white"/>
<path d="M1264.53 579.107L1274.55 569.766C1279.17 570.583 1283.81 571.471 1288.33 572.497C1286.42 568.287 1284.16 564.338 1281.98 560.268C1284.19 556.301 1286.37 552.283 1288.51 548.247C1283.87 548.908 1279.24 549.621 1274.64 550.369C1271.34 547.082 1267.79 544.003 1264.4 540.854C1263.93 545.342 1263.42 549.778 1262.88 554.196L1250.43 560.459C1254.69 562.146 1258.71 564.112 1262.81 566.043L1264.53 579.107Z" fill="white"/>
<path d="M1299.69 636.966L1311.02 629.12L1317.71 631.347L1324.21 633.765C1323 629.347 1321.37 625.085 1319.83 620.788C1322.62 617.169 1325.35 613.516 1328.11 609.811C1323.4 609.828 1318.72 609.881 1314.06 609.985C1311.34 606.262 1308.26 602.748 1305.38 599.13C1304.24 603.496 1303.06 607.828 1301.88 612.107L1288.61 616.561C1292.58 618.839 1296.21 621.362 1300.02 623.849L1299.69 636.966Z" fill="white"/>
<path d="M1327.95 686.196L1325.63 699.139L1338.04 692.98L1344.31 696.129L1350.39 699.434C1349.84 694.894 1348.86 690.458 1348.01 685.953C1351.31 682.786 1354.59 679.551 1357.89 676.28C1353.23 675.637 1348.59 675.028 1343.97 674.471C1341.87 670.401 1339.33 666.487 1337.05 662.52C1335.27 666.695 1333.44 670.801 1331.61 674.854L1317.8 677.411C1321.39 680.194 1324.56 683.187 1327.95 686.196Z" fill="white"/>
<path d="M1337.33 741.654C1340.47 744.942 1343.21 748.334 1346.07 751.796L1341.76 764.286L1355.01 759.937C1358.79 762.564 1362.71 765.243 1366.28 768.026L1366.32 764.599L1366.21 761.19L1365.95 754.37C1369.71 751.691 1373.46 748.943 1377.21 746.16C1372.7 744.855 1368.22 743.602 1363.74 742.402C1362.2 738.105 1360.37 733.861 1358.7 729.616C1356.29 733.495 1353.86 737.305 1351.4 741.063L1337.33 741.654Z" fill="white"/>
<path d="M1361.59 828.546C1364.94 831.677 1368.27 834.878 1371.63 838.131L1373.28 824.562C1377.41 822.44 1381.56 820.266 1385.69 818.039C1381.43 816.125 1377.25 814.264 1372.93 812.472L1369.85 799.095C1366.86 802.592 1363.83 806.036 1360.84 809.393L1346.87 808.002L1350.6 813.586C1351.83 815.447 1352.9 817.343 1354.06 819.257L1347.83 831.016L1361.59 828.546Z" fill="white"/>
<mask id="mask7_38_12" style="mask-type:luminance" maskUnits="userSpaceOnUse" x="175" y="738" width="103" height="93">
<path d="M175.178 738.471H277.439V830.529H175.178V738.471Z" fill="white"/>
</mask>
<g mask="url(#mask7_38_12)">
<mask id="mask8_38_12" style="mask-type:luminance" maskUnits="userSpaceOnUse" x="175" y="738" width="103" height="93">
<path d="M228.484 740.158L238.525 770.444C238.761 771.14 239.413 771.523 240.12 771.523L275.627 771.296C277.222 771.296 277.874 773.227 276.588 774.149L247.678 793.946C247.116 794.346 246.881 795.111 247.116 795.72L258.354 828.007C258.843 829.486 257.158 830.703 255.871 829.781L227.596 809.985C226.726 809.359 225.674 809.359 224.786 809.985L196.602 829.868C195.315 830.79 193.557 829.555 194.119 828.094L205.356 795.807C205.61 795.181 205.356 794.416 204.794 794.033L175.885 774.219C174.616 773.297 175.251 771.366 176.864 771.366L212.353 771.61C213.078 771.61 213.712 771.14 213.948 770.531L223.916 740.158C224.714 737.931 227.759 737.931 228.484 740.158Z" fill="white"/>
</mask>
<g mask="url(#mask8_38_12)">
<mask id="mask9_38_12" style="mask-type:luminance" maskUnits="userSpaceOnUse" x="171" y="734" width="108" height="99">
<path d="M278.4 734.8H171.68V832.773H278.4V734.8Z" fill="white"/>
</mask>
<g mask="url(#mask9_38_12)">
<mask id="mask10_38_12" style="mask-type:luminance" maskUnits="userSpaceOnUse" x="175" y="738" width="103" height="93">
<path d="M175.178 738.471H277.439V830.46H175.178V738.471Z" fill="white"/>
</mask>
<g mask="url(#mask10_38_12)">
<mask id="mask11_38_12" style="mask-type:luminance" maskUnits="userSpaceOnUse" x="175" y="738" width="103" height="93">
<path d="M228.484 740.158L238.525 770.444C238.761 771.14 239.413 771.523 240.12 771.523L275.627 771.296C277.222 771.296 277.874 773.227 276.588 774.149L247.678 793.946C247.116 794.346 246.881 795.111 247.116 795.72L258.354 828.007C258.843 829.486 257.158 830.703 255.871 829.781L227.596 809.985C226.726 809.359 225.674 809.359 224.786 809.985L196.602 829.868C195.315 830.79 193.557 829.555 194.119 828.094L205.356 795.807C205.61 795.181 205.356 794.416 204.794 794.033L175.885 774.219C174.616 773.297 175.251 771.366 176.864 771.366L212.353 771.61C213.078 771.61 213.712 771.14 213.948 770.531L223.916 740.158C224.714 737.931 227.759 737.931 228.484 740.158Z" fill="white"/>
</mask>
<g mask="url(#mask11_38_12)">
<path d="M175.178 738.471H277.439V830.164H175.178V738.471Z" fill="#114494"/>
</g>
</g>
</g>
</g>
</g>
<mask id="mask12_38_12" style="mask-type:luminance" maskUnits="userSpaceOnUse" x="1462" y="745" width="103" height="93">
<path d="M1462.69 745.064H1564.97V837.14H1462.69V745.064Z" fill="white"/>
</mask>
<g mask="url(#mask12_38_12)">
<mask id="mask13_38_12" style="mask-type:luminance" maskUnits="userSpaceOnUse" x="1462" y="745" width="103" height="92">
<path d="M1516.01 746.768L1526.05 777.055C1526.29 777.75 1526.92 778.133 1527.65 778.133L1563.14 777.89C1564.75 777.89 1565.38 779.82 1564.11 780.742L1535.21 800.556C1534.64 800.939 1534.39 801.704 1534.64 802.331L1545.88 834.617C1546.37 836.079 1544.68 837.314 1543.4 836.392L1515.12 816.578C1514.25 815.969 1513.2 815.969 1512.31 816.578L1484.13 836.461C1482.84 837.383 1481.08 836.166 1481.65 834.687L1492.88 802.4C1493.12 801.791 1492.88 801.009 1492.32 800.626L1463.41 780.829C1462.13 779.907 1462.78 777.976 1464.37 777.976L1499.88 778.203C1500.59 778.203 1501.24 777.75 1501.47 777.124L1511.43 746.768C1512.24 744.524 1515.29 744.524 1516.01 746.768Z" fill="white"/>
</mask>
<g mask="url(#mask13_38_12)">
<mask id="mask14_38_12" style="mask-type:luminance" maskUnits="userSpaceOnUse" x="1461" y="743" width="108" height="95">
<path d="M1568.32 743.707H1461.6V837.227H1568.32V743.707Z" fill="white"/>
</mask>
<g mask="url(#mask14_38_12)">
<mask id="mask15_38_12" style="mask-type:luminance" maskUnits="userSpaceOnUse" x="1462" y="745" width="103" height="92">
<path d="M1462.69 745.064H1564.97V836.879H1462.69V745.064Z" fill="white"/>
</mask>
<g mask="url(#mask15_38_12)">
<mask id="mask16_38_12" style="mask-type:luminance" maskUnits="userSpaceOnUse" x="1462" y="745" width="103" height="92">
<path d="M1516.01 746.768L1526.05 777.055C1526.29 777.75 1526.92 778.133 1527.65 778.133L1563.14 777.89C1564.75 777.89 1565.38 779.82 1564.11 780.742L1535.21 800.556C1534.64 800.939 1534.39 801.704 1534.64 802.331L1545.88 834.617C1546.37 836.079 1544.68 837.314 1543.4 836.392L1515.12 816.578C1514.25 815.969 1513.2 815.969 1512.31 816.578L1484.13 836.461C1482.84 837.383 1481.08 836.166 1481.65 834.687L1492.88 802.4C1493.12 801.791 1492.88 801.009 1492.32 800.626L1463.41 780.829C1462.13 779.907 1462.78 777.976 1464.37 777.976L1499.88 778.203C1500.59 778.203 1501.24 777.75 1501.47 777.124L1511.43 746.768C1512.24 744.524 1515.29 744.524 1516.01 746.768Z" fill="white"/>
</mask>
<g mask="url(#mask16_38_12)">
<path d="M1462.69 745.064H1564.97V836.774H1462.69V745.064Z" fill="#114494"/>
</g>
</g>
</g>
</g>
</g>
<mask id="mask17_38_12" style="mask-type:luminance" maskUnits="userSpaceOnUse" x="194" y="1019" width="1338" height="509">
<path d="M1531.2 1019.81H194.88V1527.49H1531.2V1019.81Z" fill="white"/>
</mask>
<g mask="url(#mask17_38_12)">
<path d="M311.456 1043.05L321.751 1038.39L334.656 1064.55L324.361 1069.21L320.156 1060.72L256.646 1116.67L342.123 1105.26L337.918 1096.77L348.213 1092.11L361.118 1118.27L350.823 1122.93L347.706 1116.67L248.816 1129.96L241.058 1114.23L314.501 1049.38L311.456 1043.05Z" fill="#114494"/>
<path d="M286.011 1194.11L290.651 1173.93L341.184 1141.01L362.499 1144.29L384.974 1176.08L380.261 1196.33L329.729 1229.25L308.486 1225.91L286.011 1194.11ZM299.279 1191.88L315.446 1214.84L325.814 1216.65L369.604 1188.12L371.779 1178.38L355.539 1155.35L345.171 1153.54L301.381 1182.07L299.279 1191.88Z" fill="#114494"/>
<path d="M405.841 1202.52L428.969 1227.08L420.486 1234.38L412.874 1226.24L361.181 1271.12L381.989 1293.25L394.314 1282.61L401.564 1290.26L380.829 1308.21L337.256 1262.01L345.666 1254.7L352.336 1261.8L404.029 1216.92L397.359 1209.82L405.841 1202.52Z" fill="#114494"/>
<path d="M458.017 1256.05L484.262 1277.48L476.867 1285.83L468.167 1278.73L422.927 1329.6L446.562 1348.94L457.292 1336.83L465.485 1343.58L447.36 1363.97L397.987 1323.54L405.382 1315.26L412.995 1321.46L458.235 1270.59L450.622 1264.4L458.017 1256.05Z" fill="#114494"/>
<path d="M516.516 1302.81L573.574 1337.81L558.566 1360.28L548.996 1354.37L557.841 1341.08L529.784 1323.89L514.123 1347.48L542.181 1364.67L536.019 1373.85L507.961 1356.66L492.301 1380.25L520.359 1397.44L529.204 1384.08L538.774 1389.99L523.766 1412.54L466.708 1377.54L472.871 1368.35L481.281 1373.43L518.763 1317.07L510.353 1311.99L516.516 1302.81Z" fill="#114494"/>
<path d="M599.298 1447.66L564.135 1432.35L568.848 1422.4L580.448 1427.48L587.698 1412.11L586.61 1356.79L578.345 1353.17L583.058 1343.22L610.463 1355.19L605.75 1365.14L597.993 1361.73L598.718 1403.48L632.068 1376.55L624.31 1373.21L629.023 1363.26L656.5 1375.16L651.788 1385.11L643.523 1381.49L599.805 1416.98L592.41 1432.63L604.01 1437.71L599.298 1447.66Z" fill="#114494"/>
<path d="M666.771 1378.5L721.508 1393.39L731.513 1411.76L726.076 1430.13L716.506 1435.63L723.538 1448.43L717.521 1468.89L699.033 1479.54L641.541 1463.88L644.658 1453.37L654.228 1455.95L673.223 1391.58L663.653 1389.01L666.771 1378.5ZM675.253 1431.04L667.061 1458.59L696.931 1466.67L707.008 1461.17L710.416 1449.83L704.398 1438.97L675.253 1431.04ZM685.621 1395.83L678.298 1420.53L705.341 1427.84L715.636 1422.34L718.318 1413.16L712.808 1403.21L685.621 1395.83Z" fill="#114494"/>
<path d="M795.49 1495.36L796.867 1484.5L806.147 1485.62L802.232 1468.15L766.925 1463.98L758.732 1480.05L768.157 1481.16L766.78 1492.02L736.837 1488.54L738.215 1477.68L745.682 1478.52L778.09 1414.92L772.145 1414.29L773.522 1403.44L811.15 1407.82L809.772 1418.68L803.755 1417.98L819.125 1487.15L826.81 1488.05L825.432 1498.91L795.49 1495.36ZM790.85 1416.87L772.145 1453.61L799.84 1456.88L790.85 1416.87Z" fill="#114494"/>
<path d="M847.071 1410.24L881.509 1409.61L881.726 1420.54L870.344 1420.75L871.649 1487.61L902.679 1487.06L902.389 1471.19L913.191 1471.05L913.699 1497.84L848.811 1498.96L848.594 1488.03L858.526 1487.89L857.221 1421.02L847.289 1421.16L847.071 1410.24Z" fill="#114494"/>
<path d="M923.442 1407.69L957.517 1402.81L959.185 1413.6L947.947 1415.2L958.17 1481.37L988.837 1477.06L986.445 1461.33L997.175 1459.8L1001.23 1486.31L937 1495.43L935.332 1484.64L945.192 1483.25L934.97 1417.08L925.11 1418.47L923.442 1407.69Z" fill="#114494"/>
<path d="M1117.34 1417.7L1127.92 1413.8L1134.3 1429.87L1126.04 1449.01L1092.54 1461.25L1073.19 1452.21L1051.44 1397.38L1059.7 1378.31L1093.2 1366.06L1112.55 1375.04L1118.93 1391.11L1108.35 1395.01L1104.07 1384.16L1092.33 1378.87L1069.27 1387.29L1065.07 1396.61L1083.92 1444.07L1093.41 1448.31L1116.4 1439.96L1121.69 1428.55L1117.34 1417.7Z" fill="#114494"/>
<path d="M1122.21 1354.26L1181.44 1322.73L1194.93 1346.11L1185 1351.4L1177.02 1337.56L1147.88 1353.07L1162.01 1377.57L1191.16 1362.05L1196.67 1371.58L1167.52 1387.1L1181.66 1411.59L1210.81 1396.07L1202.76 1382.16L1212.69 1376.87L1226.25 1400.32L1167.02 1431.84L1161.51 1422.31L1170.21 1417.65L1136.42 1359.13L1127.72 1363.79L1122.21 1354.26Z" fill="#114494"/>
<path d="M1266.04 1360.61L1273.87 1354.69L1280.98 1363.25L1255.17 1382.94L1248.06 1374.39L1255.82 1368.47L1212.39 1316.21L1204.63 1322.13L1197.53 1313.57L1220.66 1295.9L1302.07 1329.99L1260.24 1279.61L1252.48 1285.53L1245.38 1276.97L1271.19 1257.28L1278.29 1265.84L1270.46 1271.82L1321 1332.64L1305.7 1344.33L1224.28 1310.37L1266.04 1360.61Z" fill="#114494"/>
<path d="M1385.42 1268.45L1357.5 1297.96L1349.09 1290.58L1358.66 1280.42L1307.12 1235.47L1293.92 1249.46L1306.1 1260.1L1298.85 1267.76L1278.19 1249.8L1327.92 1197.27L1348.59 1215.22L1341.26 1222.95L1329.08 1212.3L1315.89 1226.22L1367.44 1271.17L1377.01 1261.08L1385.42 1268.45Z" fill="#114494"/>
<path d="M1335.55 1187.64L1373.61 1133.93L1396.6 1148.96L1390.22 1158L1376.59 1149.09L1357.88 1175.47L1382.02 1191.19L1400.73 1164.82L1410.15 1171.01L1391.45 1197.39L1415.52 1213.11L1434.22 1186.74L1420.59 1177.83L1426.97 1168.79L1450.03 1183.82L1411.97 1237.53L1402.54 1231.41L1408.12 1223.55L1350.49 1185.9L1344.9 1193.77L1335.55 1187.64Z" fill="#114494"/>
<path d="M1383.39 1118.1L1407.83 1068.77L1428.27 1062.43L1453.94 1074.12L1461.4 1092.77L1486.92 1090.34L1490.11 1083.8L1500.41 1088.46L1489.53 1110.38L1479.24 1105.71L1480.98 1102.3L1456.26 1104.67L1447.34 1122.76L1466.55 1131.53L1470.18 1124.08L1480.47 1128.75L1466.91 1156.16L1456.62 1151.5L1460.9 1142.87L1397.97 1114.2L1393.69 1122.83L1383.39 1118.1ZM1404.35 1103.14L1436.25 1117.68L1448.28 1093.26L1444.22 1082.61L1427.55 1075.03L1416.45 1078.65L1404.35 1103.14Z" fill="#114494"/>
</g>
<mask id="mask18_38_12" style="mask-type:luminance" maskUnits="userSpaceOnUse" x="171" y="138" width="1402" height="553">
<path d="M1572.96 138.053H171.68V690.267H1572.96V138.053Z" fill="white"/>
</mask>
<g mask="url(#mask18_38_12)">
<path d="M208.083 626.918L229.325 576.122L249.335 568.537L279.785 580.227L288.848 599.015L276.233 629.214L305.378 640.417L309.583 630.258L320.168 634.294L307.335 665.05L296.75 661.014L300.52 652.107L222.438 622.117L218.668 631.023L208.083 626.918ZM228.093 610.705L264.85 624.83L275.29 599.711L270.65 589.343L249.48 581.202L238.605 585.446L228.093 610.705Z" fill="#100F0D"/>
<path d="M246.966 539.029L275.821 491.712L296.846 487.05L323.889 502.289L329.979 522.12L366.011 525.46L369.781 519.337L379.569 524.834L366.011 547.031L356.224 541.534L359.051 536.942L323.019 533.602L312.869 550.232L341.216 566.167L345.494 559.069L355.281 564.566L339.259 590.869L329.471 585.372L334.546 577.022L261.974 536.176L256.899 544.526L246.966 539.029ZM269.369 525.808L302.284 544.248L316.494 520.937L313.449 510.013L295.034 499.645L283.651 502.359L269.369 525.808Z" fill="#100F0D"/>
<path d="M397.583 502.529L376.051 504.13L317.398 458.414L314.571 437.886L339.873 407.966L361.406 406.365L420.058 452.081L422.886 472.609L397.583 502.529ZM391.566 491.048L409.836 469.408L408.603 459.318L356.331 418.612L345.963 419.586L327.693 441.087L328.853 451.177L381.126 491.883L391.566 491.048Z" fill="#100F0D"/>
<path d="M405.462 358.989L398.139 365.599L390.309 357.597L413.437 336.722L421.267 344.724L415.032 350.36L469.697 406.236L469.552 426.972L449.687 444.924L428.082 443.741L410.899 426.206L419.309 418.691L432.504 432.121L445.264 432.747L457.082 422.101L457.299 411.942L405.462 358.989Z" fill="#100F0D"/>
<path d="M436.175 318.526L491.347 280.603L507.66 302.452L498.38 308.784L488.737 295.842L461.622 314.49L482.792 342.88L509.907 324.232L516.505 333.069L489.39 351.717L510.632 380.107L537.747 361.459L528.105 348.586L537.385 342.254L553.625 364.033L498.452 401.956L491.855 393.05L499.975 387.413L450.965 321.796L442.845 327.433L436.175 318.526Z" fill="#100F0D"/>
<path d="M614.112 332.409L577.21 350.988L571.917 341.316L584.605 334.983L545.455 263.521L526.75 272.915L534.435 286.971L524.865 291.842L511.815 268.114L579.892 233.74L592.942 257.468L583.445 262.269L575.76 248.213L557.055 257.607L596.205 329.069L608.82 322.737L614.112 332.409Z" fill="#100F0D"/>
<path d="M652.541 316.252L633.256 306.928L607.663 238.667L616.363 219.671L654.136 206.589L673.421 215.983L699.013 284.244L690.313 303.171L652.541 316.252ZM653.556 303.379L680.888 293.916L685.311 284.731L662.546 223.985L652.976 219.531L625.788 228.925L621.438 238.18L644.203 298.926L653.556 303.379Z" fill="#100F0D"/>
<path d="M766.882 273.781L778.12 272.181L765.867 192.299L754.63 193.899L752.962 183.044L788.415 178.034L790.082 188.889L778.845 190.49L791.097 270.371L802.335 268.771L804.002 279.556L768.55 284.566L766.882 273.781Z" fill="#100F0D"/>
<path d="M843.563 265.261L853.495 265.191L853.64 276.116L820.58 276.394L820.435 265.469L830.44 265.4L829.643 184.683L819.638 184.753L819.493 173.758L849.145 173.48L891.703 260.251L890.905 184.057L880.973 184.196L880.828 173.202L913.888 172.854L914.033 183.848L904.028 183.987L904.97 275.628L885.323 275.768L842.765 189.206L843.563 265.261Z" fill="#100F0D"/>
<path d="M980.778 284.967L939.598 279.122L941.265 268.337L955.403 270.355L967.655 190.473L946.775 187.551L944.383 203.277L933.653 201.746L937.713 175.165L1013.84 185.95L1009.78 212.531L999.12 211L1001.51 195.275L980.633 192.282L968.38 272.164L982.445 274.182L980.778 284.967Z" fill="#100F0D"/>
<path d="M1037.52 191.176L1102.63 209.407L1094.8 235.223L1083.92 232.161L1088.56 216.922L1056.52 207.946L1046.37 241.416L1078.41 250.392L1075.22 260.829L1043.18 251.853L1032.95 285.392L1065 294.369L1069.64 279.13L1080.51 282.191L1072.68 307.937L1007.58 289.706L1010.77 279.199L1020.34 281.913L1043.9 204.467L1034.33 201.753L1037.52 191.176Z" fill="#100F0D"/>
<path d="M1158.12 298.062L1140.22 290.269L1144.93 280.319L1173.2 292.565L1156.96 326.8L1137.03 334.663L1103.02 319.842L1095.92 300.289L1127.09 234.255L1147.18 226.392L1181.18 241.213L1188.14 260.766L1180.74 276.422L1170.38 271.969L1175.38 261.392L1171.03 249.702L1147.25 239.404L1137.39 243.092L1109.62 301.89L1113.1 311.353L1136.88 321.721L1149.06 317.267L1158.12 298.062Z" fill="#100F0D"/>
<path d="M1222.89 261.535L1270.81 291.317L1274.66 311.705L1257.69 336.963L1236.74 341.904L1231.66 376.208L1237.83 380.036L1231.66 389.221L1209.26 375.304L1215.42 366.119L1219.99 368.972L1225.07 334.667L1208.25 324.23L1190.41 350.602L1197.59 355.055L1191.43 364.24L1164.82 347.679L1170.98 338.494L1179.39 343.713L1225.14 275.939L1216.73 270.72L1222.89 261.535ZM1235.65 283.523L1214.92 314.279L1238.55 328.961L1250.08 326.526L1261.68 309.339L1259.43 298.275L1235.65 283.523Z" fill="#100F0D"/>
<path d="M1326.27 331.828L1354.69 356.112L1347.08 364.323L1342.22 360.148L1305.1 436.481L1310.4 441.004L1302.86 449.145L1280.24 429.871L1287.78 421.73L1295.24 428.062L1305.03 408.161L1278.28 385.268L1258.78 396.888L1266.17 403.22L1258.63 411.362L1236.08 392.087L1243.62 383.946L1248.99 388.538L1323.59 344.214L1318.66 340.039L1326.27 331.828ZM1331.49 353.677L1288.36 379.284L1309.96 397.793L1331.49 353.677Z" fill="#100F0D"/>
<path d="M1390.49 389.676L1429.28 434.557L1426.59 455.084L1368.38 501.357L1346.92 500.035L1308.13 455.153L1316.9 448.195L1323.28 455.571L1388.02 404.079L1381.64 396.703L1390.49 389.676ZM1332.34 464.756L1352.64 488.275L1363.16 489.18L1414.99 447.986L1416.23 437.966L1395.78 414.308L1332.34 464.756Z" fill="#100F0D"/>
<path d="M1373.88 536.972L1379.68 517.071L1444.43 479.705L1465.52 484.158L1486.26 517.21L1480.39 537.181L1415.64 574.547L1394.62 570.024L1373.88 536.972ZM1387.3 535.441L1402.16 559.308L1412.45 561.674L1470.16 528.483L1472.85 518.672L1457.98 494.874L1447.69 492.578L1389.98 525.769L1387.3 535.441Z" fill="#100F0D"/>
<path d="M1509.27 558.121L1530.88 608.848L1521.89 627.635L1492.89 639.047L1472.8 631.671L1448.23 657.069L1450.98 663.61L1440.47 667.785L1430.32 644.057L1440.83 639.882L1442.93 644.753L1467.51 619.355L1459.9 601.472L1429.52 613.371L1432.78 621.025L1422.27 625.2L1410.31 597.018L1420.82 592.843L1424.59 601.75L1502.46 571.203L1498.69 562.296L1509.27 558.121ZM1506.59 583.102L1471.28 597.018L1482.01 622.068L1492.89 626.383L1512.61 618.589L1517.39 608.291L1506.59 583.102Z" fill="#100F0D"/>
</g>
<path d="M666.5 749.556C698.942 715.891 717.053 700.823 760.5 683.556C760.5 683.556 786.795 661.65 801 654.056C813.219 647.525 828.623 641.458 844.5 636.556C852.479 634.043 859.101 632.199 865.483 630.854C871.03 629.574 876.677 628.465 882.5 627.556C907.388 623.672 913.048 621.699 940.5 621.056C971.698 620.326 995.225 626.768 1025 636.556C1064.58 649.569 1082.95 664.342 1110.5 692.056C1128.04 709.7 1140.81 736.5 1146 745.5C1153.5 758.5 1162.42 795.132 1164 810.056C1164.37 813.5 1166.45 852.117 1160 878C1155.07 897.782 1150.54 904.5 1141.5 925C1126.5 959 1085 992.242 1066 1002C1047 1011.76 989.798 1030.17 968.5 1028.56C937.234 1028.62 921.869 1025.56 893 1013.56C880.978 1008.56 833.652 980.536 810.5 947C804.386 938.143 801.036 930.231 797 922.5C797 922.5 784.5 924.996 767 930.498C759 933.013 720.714 938.76 702 936C688.434 933.999 670.5 930.498 670.5 930.498C660.17 933.731 652.527 935.569 650 936C629.5 939.5 604.72 940.815 587 939.5C568.882 938.155 541 932.556 541 932.556C529.974 934.216 526.203 932.363 512 932.556C512 932.556 482.839 934.892 465 930.498C459.843 929.227 454 926.5 454 926.5C454 926.5 511 919.112 541 896.556C571 874 590.656 851.085 606.782 828.056C624.017 803.447 639.12 777.969 666.5 749.556Z" fill="#F9CC02"/>
<path d="M760.5 683.556C717.053 700.823 698.942 715.891 666.5 749.556C639.12 777.969 624.017 803.447 606.782 828.056M760.5 683.556C812.973 662.703 849.138 662.292 903.5 677.556C938.98 687.519 958.965 697.236 987.5 720.556C1016.04 743.877 1050.5 800.5 1050.5 800.5L1117.5 769.556M760.5 683.556C760.5 683.556 786.795 661.65 801 654.056C813.219 647.525 828.623 641.458 844.5 636.556M1146 745.5C1140.81 736.5 1128.04 709.7 1110.5 692.056C1082.95 664.342 1064.58 649.569 1025 636.556C995.225 626.768 971.698 620.326 940.5 621.056C913.048 621.699 907.388 623.672 882.5 627.556C869.222 629.629 856.865 632.739 844.5 636.556M1146 745.5C1143.6 754 1127.77 761.369 1117.5 769.556M1146 745.5C1153.5 758.5 1162.42 795.132 1164 810.056M1117.5 769.556C1117.5 769.556 1105.46 751.272 1097.75 739.556C1090.04 727.841 1086.74 720.528 1078 709.556C1060.85 688.018 1048.39 677.583 1025 663.056C1002.17 648.88 987.443 643.557 961.5 636.556C937.319 630.031 923.039 626.965 898 627.556C876.53 628.063 864.984 630.103 844.5 636.556M1117.5 769.556L977 834.056M1164 810.056C1134.09 849.57 1112.89 868.661 1067.5 888.556C1026.71 906.437 956 909.556 956 909.556M1164 810.056C1164.37 813.5 1166.45 852.117 1160 878C1155.07 897.782 1150.54 904.5 1141.5 925M1141.5 925C1126.5 959 1085 992.242 1066 1002C1047 1011.76 989.798 1030.17 968.5 1028.56M1141.5 925C1113.63 945.248 1095.04 957.227 1062.5 968.556C1024.92 981.643 961.5 982.056 961.5 982.056M968.5 1028.56C937.234 1028.62 921.869 1025.56 893 1013.56M968.5 1028.56C965.767 1010.4 961.5 982.056 961.5 982.056M893 1013.56C880.978 1008.56 833.652 980.536 810.5 947M893 1013.56C893 1013.56 873.072 950.833 874 909.556C874.537 885.682 876.209 872.037 882.5 849C890.894 818.26 917 775.056 917 775.056M810.5 947C810.5 947 812.052 911.329 813 888.556C814.319 856.9 818.039 839.879 827 810.056C834.91 783.732 854 745.056 854 745.056M810.5 947C804.386 938.143 801.036 930.231 797 922.5M777.5 866.5C773.015 839.732 777.55 810.056 780.5 797.056C785.947 773.053 806.5 737.641 806.5 737.641M777.5 866.5C777.5 866.5 748.174 895.321 721.5 909.556C703.601 919.108 684.561 926.097 670.5 930.498M777.5 866.5C781.414 889.859 788.119 905.488 797 922.5M806.5 737.641C806.5 737.641 831.976 739.348 854 745.056M806.5 737.641C806.5 737.641 776.488 733.415 760.5 733.556C730.856 733.819 688 756.056 688 756.056L646 789.056L606.782 828.056M806.5 737.641H792.5C792.5 737.641 771.267 784.261 751.5 810.056C723.133 847.075 701.621 864.778 661.5 888.556C634.194 904.74 617.53 912.367 587 921.056C572.162 925.279 552.976 930.753 541 932.556M854 745.056C880.379 751.893 894.395 759.838 917 775.056M917 775.056C941.409 791.489 955.521 813.944 977 834.056M977 834.056C966.192 865.247 957.561 876.583 956 909.556M956 909.556C954.658 937.919 961.5 982.056 961.5 982.056M606.782 828.056C590.656 851.085 571 874 541 896.556C511 919.112 454 926.5 454 926.5C454 926.5 459.843 929.227 465 930.498C482.839 934.892 512 932.556 512 932.556C526.203 932.363 529.974 934.217 541 932.556M541 932.556C541 932.556 568.882 938.155 587 939.5C604.72 940.815 629.5 939.5 650 936C652.527 935.569 660.17 933.731 670.5 930.498M797 922.5C797 922.5 784.5 924.996 767 930.498C759 933.013 720.714 938.76 702 936C688.434 933.999 670.5 930.498 670.5 930.498" stroke="#062F6E" stroke-width="28"/>
<path d="M529 920C529 920 568.386 892.345 586.5 873C603.799 854.525 604.658 850.996 619 834.5C626.825 825.5 640.767 804.965 650.5 795.5C660.36 785.912 668.524 777.787 679.5 769.5C696.531 756.641 700.019 755.993 720.5 750C738.866 744.626 772.5 747.5 772.5 747.5C772.5 747.5 757.584 783.255 743 802.5C728.905 821.1 719.299 830.405 701.5 845.5C674.885 868.071 653 878.5 624.5 894C609.149 902.349 584 909 567.5 913.5C551.177 917.952 529 920 529 920Z" fill="white"/>
<path d="M777 913L769 892.5C769 892.5 761.61 898.938 757 902.5C751.683 906.608 748.058 909.225 742.5 913C738.065 916.013 727 922.5 727 922.5C727 922.5 735.221 921.543 739.5 921C744.213 920.402 750.342 919.934 755 919C763.312 917.334 777 913 777 913Z" fill="white"/>
<path d="M714.5 898C735.446 887.498 763.5 861.5 763.5 861.5C763.5 861.5 761.985 848.832 762 841C762.015 833.362 763.5 817 763.5 817C763.5 817 742.261 841.441 728 856.5C722.398 862.416 716.515 866.646 710 872C699.161 880.907 695.781 883.383 684 891C674.213 897.327 667.898 900.668 657.5 906.5C645.314 913.335 618.5 925.5 618.5 925.5C618.5 925.5 653.284 923.486 669.5 917C687 910 698.106 906.219 714.5 898Z" fill="white"/>
</g>
<defs>
<clipPath id="clip0_38_12">
<rect width="1740" height="1670" fill="white"/>
</clipPath>
</defs>
</svg>
