<svg width="1591" height="1595" viewBox="0 0 1591 1595" fill="none" xmlns="http://www.w3.org/2000/svg">
<mask id="mask0_44_261" style="mask-type:luminance" maskUnits="userSpaceOnUse" x="0" y="12" width="1590" height="1526">
<path d="M0 12.4728H1589.09V1537.62H0V12.4728Z" fill="white"/>
</mask>
<g mask="url(#mask0_44_261)">
<mask id="mask1_44_261" style="mask-type:luminance" maskUnits="userSpaceOnUse" x="0" y="12" width="1590" height="1526">
<path d="M794.546 12.4728C355.739 12.4728 0 353.883 0 775.054C0 1196.21 355.739 1537.62 794.546 1537.62C1233.35 1537.62 1589.09 1196.21 1589.09 775.054C1589.09 353.883 1233.35 12.4728 794.546 12.4728Z" fill="white"/>
</mask>
<g mask="url(#mask1_44_261)">
<mask id="mask2_44_261" style="mask-type:luminance" maskUnits="userSpaceOnUse" x="-2" y="9" width="1593" height="1532">
<path d="M1590.31 9.04584H-1.21436V1540.99H1590.31V9.04584Z" fill="white"/>
</mask>
<g mask="url(#mask2_44_261)">
<mask id="mask3_44_261" style="mask-type:luminance" maskUnits="userSpaceOnUse" x="0" y="12" width="1590" height="1526">
<path d="M0 12.4728H1589.09V1537.62H0V12.4728Z" fill="white"/>
</mask>
<g mask="url(#mask3_44_261)">
<mask id="mask4_44_261" style="mask-type:luminance" maskUnits="userSpaceOnUse" x="0" y="12" width="1590" height="1526">
<path d="M794.546 12.4728C355.739 12.4728 0 353.883 0 775.054C0 1196.21 355.739 1537.62 794.546 1537.62C1233.35 1537.62 1589.09 1196.21 1589.09 775.054C1589.09 353.883 1233.35 12.4728 794.546 12.4728Z" fill="white"/>
</mask>
<g mask="url(#mask4_44_261)">
<path d="M0 12.4728H1589.09V1537.62H0V12.4728Z" fill="#F9CC02"/>
</g>
</g>
</g>
</g>
</g>
<mask id="mask5_44_261" style="mask-type:luminance" maskUnits="userSpaceOnUse" x="0" y="0" width="1591" height="1527">
<path d="M0 0H1590.31V1526.38H0V0Z" fill="white"/>
</mask>
<g mask="url(#mask5_44_261)">
<path d="M794.528 0C356.428 0 0 342.106 0 762.564C0 1183.06 356.428 1525.13 794.528 1525.13C1232.63 1525.13 1589.06 1183.06 1589.06 762.564C1589.06 342.106 1232.63 0 794.528 0ZM794.528 1505.26C367.847 1505.26 20.7169 1172.08 20.7169 762.581C20.7169 353.066 367.865 19.9008 794.528 19.9008C1221.21 19.9008 1568.36 353.066 1568.36 762.581C1568.36 1172.08 1221.21 1505.26 794.528 1505.26Z" fill="#E6AF0E"/>
</g>
<path d="M794.527 59.5459C390.63 59.5459 62.0234 374.915 62.0234 762.564C62.0234 1150.23 390.63 1465.6 794.527 1465.6C1198.44 1465.6 1527.03 1150.23 1527.03 762.564C1527.03 374.932 1198.44 59.5459 794.527 59.5459Z" fill="#E6AF0E"/>
<mask id="mask6_44_261" style="mask-type:luminance" maskUnits="userSpaceOnUse" x="236" y="226" width="1118" height="1074">
<path d="M236.477 226.963H1353.56V1299.1H236.477V226.963Z" fill="white"/>
</mask>
<g mask="url(#mask6_44_261)">
<path d="M1189.14 383.822C1083.73 282.665 943.605 226.963 794.527 226.963C645.467 226.963 505.325 282.665 399.928 383.822C294.549 484.996 236.477 619.5 236.477 762.564C236.477 905.627 294.549 1040.13 399.928 1141.29C505.325 1242.46 645.467 1298.16 794.527 1298.16C943.605 1298.16 1083.73 1242.46 1189.14 1141.29C1294.52 1040.13 1352.58 905.627 1352.58 762.564C1352.58 619.5 1294.52 484.996 1189.14 383.822ZM794.527 1286.6C493.471 1286.6 248.53 1051.51 248.53 762.564C248.53 473.619 493.471 238.532 794.527 238.532C1095.58 238.532 1340.52 473.619 1340.52 762.564C1340.52 1051.51 1095.58 1286.6 794.527 1286.6Z" fill="white"/>
</g>
<path d="M1295.01 793.807C1291.51 796.834 1287.98 799.843 1284.5 802.748L1270.91 799.46C1272.74 803.444 1274.73 807.497 1276.42 811.585L1268.41 822.336L1282.4 821.797C1285.21 825.363 1288.03 828.981 1290.84 832.669L1294.61 819.483C1299.04 817.952 1303.48 816.352 1307.92 814.734C1304.08 812.264 1299.94 809.828 1295.97 807.445L1295.01 793.807Z" fill="white"/>
<path d="M1285.06 863.425C1281.11 865.947 1277.16 868.4 1273.24 870.801L1260.3 865.634L1263.95 878.403C1260.77 881.638 1257.53 884.787 1254.36 887.918L1268.3 889.345C1270.53 893.276 1272.74 897.242 1274.95 901.261L1280.73 888.771C1285.35 887.866 1290.01 886.927 1294.61 885.918C1291.04 882.908 1287.45 879.951 1283.85 877.011L1285.06 863.425Z" fill="white"/>
<path d="M1264.58 930.921C1260.29 932.834 1256.03 934.73 1251.75 936.54L1239.75 929.599L1241.38 942.732C1237.77 945.498 1234.08 948.16 1230.45 950.822L1244.03 954.196C1245.64 958.371 1247.22 962.616 1248.79 966.93L1256.42 955.397C1261.1 955.171 1265.9 954.91 1270.58 954.544C1267.5 951.048 1264.42 947.621 1261.3 944.211L1264.58 930.921Z" fill="white"/>
<path d="M1233.99 994.798C1229.44 996.103 1224.92 997.373 1220.43 998.573L1209.61 990.014L1209.21 1003.24C1205.22 1005.46 1201.14 1007.58 1197.17 1009.69L1210.08 1014.94C1211.04 1019.31 1211.95 1023.73 1212.85 1028.2L1222.15 1017.85C1226.84 1018.28 1231.59 1018.67 1236.29 1018.98C1233.79 1015.12 1231.25 1011.27 1228.68 1007.48L1233.99 994.798Z" fill="white"/>
<path d="M1180.06 1055.54L1170.64 1045.58L1168.25 1058.61L1155.36 1063.32L1167.34 1070.3C1167.63 1074.75 1167.87 1079.25 1168.08 1083.81L1178.85 1074.85C1183.44 1075.93 1188.02 1076.96 1192.66 1077.97C1190.79 1073.79 1188.85 1069.63 1186.88 1065.51L1194 1053.7C1189.33 1054.36 1184.67 1054.95 1180.06 1055.54Z" fill="white"/>
<path d="M1131.49 1106.29L1123.68 1095.1C1122.26 1099.24 1120.89 1103.5 1119.31 1107.66L1105.88 1110.55L1116.66 1119.13C1116.28 1123.58 1115.87 1128.09 1115.39 1132.63L1127.36 1125.23C1131.71 1126.92 1136.13 1128.59 1140.57 1130.22C1139.41 1125.89 1138.07 1121.46 1136.75 1117.13L1145.57 1106.39C1140.84 1106.39 1136.13 1106.36 1131.49 1106.29Z" fill="white"/>
<path d="M1075.77 1149.76L1069.72 1137.62C1067.69 1141.51 1065.73 1145.6 1063.52 1149.39L1049.78 1150.4L1059.15 1160.39C1058.12 1164.76 1057.01 1169.14 1055.85 1173.56L1068.79 1167.9C1072.87 1170.18 1076.97 1172.44 1081.1 1174.65C1080.61 1170.22 1079.98 1165.68 1079.33 1161.21L1089.66 1151.78C1084.98 1151.15 1080.34 1150.47 1075.77 1149.76Z" fill="white"/>
<path d="M1009.94 1172.13C1007.33 1175.68 1004.81 1179.49 1002.02 1182.92L988.284 1181.99L996.041 1193.18C994.337 1197.36 992.597 1201.56 990.767 1205.77L1004.43 1201.97C1008.09 1204.8 1011.81 1207.6 1015.56 1210.37C1015.74 1205.91 1015.83 1201.39 1015.85 1196.83L1027.49 1188.94C1022.96 1187.67 1018.46 1186.33 1014.04 1185L1009.94 1172.13Z" fill="white"/>
<path d="M945.545 1197.88C942.409 1201.03 939.328 1204.44 936.047 1207.43L922.617 1204.57L928.58 1216.75C926.26 1220.63 923.885 1224.54 921.438 1228.44L935.54 1226.63C938.73 1229.95 941.992 1233.23 945.291 1236.51C946.161 1232.13 946.94 1227.64 947.665 1223.14L960.389 1216.96C956.093 1215.06 951.852 1213.13 947.702 1211.18L945.545 1197.88Z" fill="white"/>
<path d="M877.902 1214.26C874.332 1216.96 870.743 1219.8 867.063 1222.42L854.195 1217.67L858.237 1230.55C855.355 1234.06 852.418 1237.57 849.392 1241.09L863.638 1241.3C866.302 1245.04 869.021 1248.76 871.758 1252.47C873.28 1248.24 874.73 1243.84 876.126 1239.52L889.647 1235.24C885.696 1232.74 881.781 1230.23 877.975 1227.69L877.902 1214.26Z" fill="white"/>
<path d="M808.466 1221.01L796.503 1227.57C792.443 1225.57 788.438 1223.24 784.468 1221.1L786.534 1234.43C783.163 1237.47 779.719 1240.53 776.203 1243.58L790.25 1245.84C792.316 1249.89 794.437 1254.05 796.612 1257.98C798.751 1253.91 800.835 1249.84 802.883 1245.77L816.93 1243.49C813.396 1240.44 809.916 1237.4 806.526 1234.34L808.466 1221.01Z" fill="white"/>
<path d="M738.721 1218.14L725.906 1222.89C724.057 1221.59 722.209 1220.39 720.378 1219.03L714.977 1214.91L715.013 1228.39C711.225 1230.91 707.364 1233.43 703.431 1235.94L716.989 1240.24C718.421 1244.53 719.925 1248.73 721.466 1252.99C724.202 1249.25 726.867 1245.52 729.513 1241.8L743.723 1241.56C740.696 1238.1 737.724 1234.53 734.806 1231.02L738.721 1218.14Z" fill="white"/>
<path d="M670.208 1205.58L656.814 1208.45L651.92 1203.88C650.307 1202.31 648.766 1200.66 647.208 1199.06L645.178 1212.4C641.027 1214.35 636.822 1216.3 632.562 1218.23L645.304 1224.37C646.084 1228.77 646.936 1233.19 647.806 1237.59C651.068 1234.3 654.276 1231 657.448 1227.68C662.179 1228.23 666.837 1229 671.568 1229.4C669.03 1225.69 666.674 1221.62 664.336 1217.78L670.208 1205.58Z" fill="white"/>
<path d="M590.639 1184.46L586.506 1179.25C585.147 1177.49 583.878 1175.61 582.591 1173.82L578.55 1186.74C574.145 1188.08 569.686 1189.42 565.173 1190.73C569.052 1193.34 572.895 1196.02 576.846 1198.59C576.955 1203.04 577.118 1207.51 577.317 1212.02C581.051 1209.24 584.73 1206.4 588.373 1203.58C592.959 1204.8 597.436 1206.26 602.076 1207.24C600.136 1203.22 598.415 1198.9 596.675 1194.75L604.323 1183.53L590.639 1184.46Z" fill="white"/>
<path d="M528.851 1151.43L525.552 1145.69L522.489 1139.76L516.526 1151.97C511.977 1152.7 507.355 1153.4 502.697 1154.04L513.028 1163.47C512.448 1167.9 511.941 1172.34 511.451 1176.85C515.547 1174.58 519.644 1172.32 523.686 1170.03C528.036 1171.87 532.241 1173.91 536.663 1175.58C535.376 1171.33 534.325 1166.79 533.237 1162.44L542.517 1152.39L528.851 1151.43Z" fill="white"/>
<path d="M472.718 1110.13C471.92 1108.06 471.086 1106.06 470.343 1103.96L468.205 1097.66L460.483 1108.9C455.861 1108.98 451.167 1109.05 446.473 1109.05L455.281 1119.8C453.995 1124.15 452.853 1128.45 451.675 1132.83C456.079 1131.18 460.465 1129.49 464.797 1127.77C468.803 1130.22 472.718 1132.76 476.796 1135.11C476.198 1130.68 475.817 1126.07 475.418 1121.63L486.13 1112.97L472.718 1110.13Z" fill="white"/>
<path d="M420.826 1048.48L411.456 1058.54C406.87 1058 402.23 1057.41 397.554 1056.76L404.695 1068.61C402.719 1072.77 400.943 1076.84 399.149 1081.01C403.771 1079.99 408.356 1078.92 412.924 1077.85L423.672 1086.75C423.817 1082.23 424.071 1077.67 424.342 1073.22L436.251 1066.14L423.382 1061.48C422.331 1057.23 421.606 1052.8 420.826 1048.48Z" fill="white"/>
<path d="M381.368 993.233L370.62 1001.86C366.143 1000.7 361.648 999.443 357.117 998.156L362.409 1010.87C359.835 1014.7 357.37 1018.54 354.996 1022.37C359.727 1022.01 364.439 1021.61 369.097 1021.14L378.377 1031.45C379.247 1026.96 380.172 1022.53 381.114 1018.13L393.965 1012.8L381.93 1006.38C381.513 1002.1 381.531 997.582 381.368 993.233Z" fill="white"/>
<path d="M349.268 946.212C349.413 944.037 349.631 941.845 349.921 939.636L350.755 933.078L338.792 940.106C334.551 938.297 330.273 936.47 325.978 934.556L329.276 947.864C326.141 951.291 323.114 954.753 320.196 958.215C324.926 958.51 329.657 958.771 334.333 958.963L341.982 970.479C343.523 966.147 345.1 961.885 346.695 957.693L360.216 954.196L349.268 946.212Z" fill="white"/>
<path d="M335.765 891.519L326.195 882.038C327.083 877.811 328.479 873.48 329.639 869.27L316.716 874.541C312.783 872.175 308.85 869.739 304.898 867.234L306.113 880.873C302.47 883.83 299.008 886.805 295.546 889.814C300.186 890.788 304.808 891.71 309.43 892.563L315.212 905.036C317.405 900.982 319.616 896.981 321.845 893.033L335.765 891.519Z" fill="white"/>
<path d="M307.182 825.606L321.175 826.041L313.181 815.325C314.033 813.273 314.795 811.255 315.683 809.219L318.474 803.166L304.88 806.575C301.364 803.67 297.866 800.713 294.368 797.703L293.425 811.342C289.456 813.76 285.613 816.213 281.68 818.718C286.121 820.318 290.543 821.866 294.966 823.38C296.235 827.781 297.449 832.165 298.79 836.548C301.527 832.826 304.355 829.19 307.182 825.606Z" fill="white"/>
<path d="M293.009 766.46C296.108 763.19 299.479 759.972 302.85 756.806L316.589 759.154L310.39 747.429L313.798 741.741C314.922 739.845 316.082 737.983 317.35 736.122L303.376 737.618C300.367 734.278 297.377 730.868 294.386 727.389L292.845 734.069C292.302 736.296 291.812 738.523 291.468 740.767C287.227 742.611 282.985 744.507 278.744 746.455C282.859 748.664 286.991 750.804 291.142 752.909C291.722 757.467 292.084 761.99 293.009 766.46Z" fill="white"/>
<path d="M297.63 689.484L297.739 696.32C301.437 693.52 304.917 690.754 308.832 688.11L322.063 692.354L317.749 679.934C320.613 676.489 323.422 673.045 326.304 669.705L312.33 669.27C309.702 665.495 307.4 661.738 304.917 657.858L302.361 664.243C301.509 666.382 300.839 668.557 300.077 670.714C295.582 671.932 291.105 673.219 286.592 674.558C290.344 677.289 294.096 680.003 297.866 682.647L297.63 689.484Z" fill="white"/>
<path d="M313 627.607C317.079 625.363 321.03 623.136 325.199 621.031L337.687 627.102C336.799 622.806 336.092 618.544 335.294 614.177L345.317 605.271L331.597 602.87C329.512 598.747 327.827 594.711 325.996 590.554L322.462 596.503L319.254 602.592C314.632 603.166 309.974 603.809 305.297 604.47C308.578 607.706 311.895 610.924 315.194 614.073C314.233 618.544 313.653 623.084 313 627.607Z" fill="white"/>
<path d="M338.629 561.764C342.997 560.111 347.275 558.476 351.679 556.98L363.134 564.738C362.898 560.355 362.844 556.04 362.735 551.622L374.009 544.229L360.796 539.932C359.364 535.583 358.313 531.338 357.117 526.955L352.712 532.365L348.58 537.931C343.922 537.862 339.227 537.827 334.497 537.844C337.252 541.515 340.007 545.151 342.816 548.734C341.203 552.979 339.952 557.38 338.629 561.764Z" fill="white"/>
<path d="M373.991 500.235C378.577 499.226 382.999 498.164 387.639 497.329L397.789 506.619C398.242 502.287 398.822 497.973 399.384 493.589L411.673 487.849L399.239 481.743C398.514 477.255 398.097 472.906 397.572 468.418L392.424 473.149C390.702 474.732 389.144 476.42 387.494 478.055C382.89 477.324 378.25 476.646 373.592 476.002C375.749 480.021 377.942 483.987 380.172 487.936C377.888 491.885 375.949 496.077 373.991 500.235Z" fill="white"/>
<path d="M446.038 429.468C446.056 424.98 446.273 420.579 446.437 416.056C442.612 418.7 438.661 421.275 435 424.163C430.541 422.823 426.064 421.501 421.551 420.214C423.092 424.493 424.687 428.738 426.282 432.93L422.185 438.497L418.325 444.272C423.019 443.907 427.532 443.455 432.299 443.315L440.89 453.892L444.461 441.228C448.847 439.871 453.125 438.479 457.493 437.262L446.038 429.468Z" fill="white"/>
<path d="M500.286 384.257C501.047 379.908 501.845 375.489 502.715 371.053C498.546 373.175 494.196 375.124 490.154 377.49C485.949 375.541 481.726 373.61 477.448 371.732C478.318 376.185 479.261 380.586 480.221 384.987L475.31 389.91C473.696 391.58 472.174 393.337 470.615 395.059C475.291 395.32 479.877 395.564 484.59 396.086L491.513 407.741L496.933 395.703C501.482 394.972 505.868 394.137 510.436 393.598L500.286 384.257Z" fill="white"/>
<path d="M569.397 357.797L560.769 347.134C562.183 342.924 563.651 338.697 565.174 334.4L558.431 336.627C556.184 337.357 553.918 338.105 551.743 338.993C547.9 336.488 543.985 333.983 540.07 331.512C540.27 336.035 540.505 340.558 540.795 345.029C537.044 347.83 533.292 350.596 529.757 353.64L536.572 355.014L543.424 356.615L548.517 369.105L555.694 357.919C560.334 357.884 564.775 357.606 569.397 357.797Z" fill="white"/>
<path d="M626.273 318.848C628.303 314.882 630.405 310.898 632.562 306.897C627.922 307.802 623.173 308.445 618.588 309.559C615.18 306.532 611.7 303.505 608.166 300.53C607.677 305.053 607.223 309.524 606.825 314.012C602.692 316.274 598.542 318.448 594.59 320.97L601.133 323.284L607.677 325.859L610.794 338.923L619.603 328.868C624.17 329.46 628.611 329.79 633.16 330.625L626.273 318.848Z" fill="white"/>
<path d="M703.413 289.171C698.682 289.397 693.879 289.345 689.167 289.849C686.249 286.37 683.276 282.908 680.249 279.429C679.053 283.83 677.947 288.197 676.86 292.563C672.401 294.198 667.997 295.799 663.683 297.747L669.791 300.965C671.821 302.061 673.851 303.262 675.863 304.41L676.969 317.787L687.209 309.089C691.65 310.307 695.982 311.316 700.35 312.707L695.329 300.078C697.994 296.46 700.676 292.824 703.413 289.171Z" fill="white"/>
<path d="M776.203 281.552L769.134 280.751L762.029 280.282C759.673 276.437 757.262 272.575 754.779 268.713C752.949 272.888 751.154 277.046 749.45 281.204C747.112 281.726 744.792 282.178 742.509 282.7L735.621 284.526C739.373 287.275 743.034 289.815 746.677 292.772L745.717 306.149L757.19 299.034L769.642 304.392L766.579 291.328C769.732 287.849 772.94 284.805 776.203 281.552Z" fill="white"/>
<path d="M849.392 284.022L845.966 283.117L842.504 282.369L835.562 280.89C833.804 276.733 831.992 272.558 830.107 268.4C827.678 272.245 825.285 276.107 822.965 279.986C818.235 280.264 813.504 280.977 808.792 281.465C812.108 284.683 815.335 287.901 818.507 291.102L815.552 304.305C819.667 302.218 823.781 300.583 827.968 298.756L839.495 305.871L838.426 292.493C842.015 289.588 845.676 286.648 849.392 284.022Z" fill="white"/>
<path d="M908.189 291.676C907.084 287.31 905.924 282.926 904.709 278.525C901.719 282.004 898.783 285.466 895.883 288.962L881.618 288.492C884.373 292.163 887.11 295.799 889.756 299.417L884.844 312.064L891.406 309.994L898.003 308.237L908.28 316.952L909.277 303.557C913.264 301.261 917.343 298.843 921.439 296.703C917.089 294.894 912.63 293.363 908.189 291.676Z" fill="white"/>
<path d="M978.442 312.551C978.025 308.08 977.535 303.557 977.01 299.034C973.512 302.061 970.104 305.019 966.679 308.132L952.668 305.627C954.843 309.646 956.964 313.647 959.03 317.613L952.233 329.407C956.746 328.642 961.295 327.911 965.809 327.459L974.654 337.531L977.662 324.415C981.976 322.71 986.362 320.936 990.767 319.335C986.707 317.022 982.556 314.847 978.442 312.551Z" fill="white"/>
<path d="M1044.73 343.081C1044.98 338.575 1045.18 334.07 1045.36 329.512C1041.44 332.034 1037.62 334.47 1033.74 337.079L1020.26 332.626C1021.8 336.905 1023.28 341.15 1024.72 345.377L1016.2 356.093L1023.08 355.954C1025.39 355.919 1027.63 356.04 1029.92 356.058L1037.13 367.261L1042.12 354.718C1046.61 353.622 1051.25 352.457 1055.84 351.518C1052.25 348.647 1048.44 345.934 1044.73 343.081Z" fill="white"/>
<path d="M1105.66 382.569C1106.6 378.151 1107.49 373.715 1108.34 369.244C1104.1 371.14 1099.9 373.088 1095.71 375.089L1083.02 368.809C1083.91 373.262 1084.74 377.664 1085.52 382.047L1075.48 391.458L1082.33 392.276L1089.08 393.355L1094.53 405.445L1101.37 393.72C1105.99 393.302 1110.79 392.746 1115.41 392.502C1112.29 389.075 1108.92 385.909 1105.66 382.569Z" fill="white"/>
<path d="M1166.18 438.445L1164.11 435.679L1159.98 430.112C1161.58 425.885 1163.14 421.605 1164.66 417.309C1160.16 418.613 1155.7 419.97 1151.28 421.344C1147.46 418.613 1143.54 416.004 1139.7 413.377C1139.9 417.9 1140.08 422.371 1140.19 426.807L1128.82 434.739C1131.02 435.331 1133.28 435.87 1135.46 436.514L1141.95 438.532L1145.55 451.231L1154.07 440.584C1158.73 440.776 1163.53 440.932 1168.14 441.35L1166.18 438.445Z" fill="white"/>
<path d="M1189.07 503.54L1199.1 494.198C1203.72 495.016 1208.36 495.903 1212.87 496.929C1210.97 492.72 1208.7 488.771 1206.53 484.7C1208.74 480.734 1210.91 476.715 1213.05 472.68C1208.41 473.341 1203.79 474.054 1199.19 474.802C1195.89 471.514 1192.33 468.435 1188.95 465.286C1188.47 469.774 1187.97 474.21 1187.42 478.629L1174.97 484.891C1179.23 486.579 1183.25 488.545 1187.35 490.476L1189.07 503.54Z" fill="white"/>
<path d="M1224.23 561.398L1235.56 553.553L1242.25 555.78L1248.76 558.198C1247.54 553.779 1245.91 549.517 1244.37 545.22C1247.16 541.602 1249.9 537.949 1252.65 534.243C1247.94 534.261 1243.27 534.313 1238.61 534.417C1235.89 530.695 1232.81 527.181 1229.93 523.562C1228.78 527.929 1227.61 532.26 1226.43 536.54L1213.16 540.993C1217.13 543.272 1220.75 545.794 1224.56 548.282L1224.23 561.398Z" fill="white"/>
<path d="M1252.49 610.628L1250.17 623.571L1262.59 617.413L1268.86 620.562L1274.93 623.867C1274.39 619.326 1273.41 614.89 1272.56 610.385C1275.85 607.219 1279.14 603.983 1282.43 600.713C1277.78 600.069 1273.14 599.46 1268.51 598.904C1266.41 594.833 1263.87 590.919 1261.59 586.953C1259.81 591.128 1257.98 595.233 1256.15 599.286L1242.34 601.844C1245.93 604.627 1249.1 607.619 1252.49 610.628Z" fill="white"/>
<path d="M1261.88 666.087C1265.02 669.374 1267.75 672.766 1270.62 676.228L1266.3 688.718L1279.55 684.37C1283.34 686.996 1287.26 689.675 1290.83 692.459L1290.86 689.032L1290.75 685.622L1290.5 678.803C1294.25 676.124 1298 673.375 1301.76 670.592C1297.24 669.287 1292.77 668.035 1288.29 666.835C1286.75 662.538 1284.92 658.293 1283.25 654.049C1280.84 657.928 1278.41 661.738 1275.95 665.495L1261.88 666.087Z" fill="white"/>
<path d="M1286.13 752.979C1289.48 756.11 1292.82 759.311 1296.17 762.564L1297.82 748.995C1301.95 746.873 1306.11 744.698 1310.24 742.472C1305.98 740.558 1301.79 738.697 1297.48 736.905L1294.4 723.527C1291.41 727.024 1288.38 730.468 1285.39 733.826L1271.41 732.434L1275.15 738.018C1276.38 739.88 1277.45 741.776 1278.61 743.689L1272.37 755.449L1286.13 752.979Z" fill="white"/>
<mask id="mask7_44_261" style="mask-type:luminance" maskUnits="userSpaceOnUse" x="99" y="662" width="103" height="93">
<path d="M99.7236 662.903H201.985V754.962H99.7236V662.903Z" fill="white"/>
</mask>
<g mask="url(#mask7_44_261)">
<mask id="mask8_44_261" style="mask-type:luminance" maskUnits="userSpaceOnUse" x="99" y="662" width="103" height="93">
<path d="M153.029 664.59L163.07 694.877C163.306 695.572 163.959 695.955 164.665 695.955L200.172 695.729C201.767 695.729 202.42 697.66 201.133 698.582L172.224 718.378C171.662 718.778 171.426 719.544 171.662 720.153L182.899 752.439C183.389 753.918 181.703 755.136 180.416 754.214L152.141 734.417C151.271 733.791 150.22 733.791 149.332 734.417L121.147 754.301C119.86 755.223 118.102 753.988 118.664 752.526L129.902 720.24C130.155 719.613 129.902 718.848 129.34 718.465L100.43 698.651C99.1617 697.729 99.7961 695.799 101.409 695.799L136.898 696.042C137.623 696.042 138.257 695.572 138.493 694.964L148.462 664.59C149.259 662.364 152.304 662.364 153.029 664.59Z" fill="white"/>
</mask>
<g mask="url(#mask8_44_261)">
<mask id="mask9_44_261" style="mask-type:luminance" maskUnits="userSpaceOnUse" x="96" y="659" width="107" height="99">
<path d="M202.946 659.232H96.2256V757.206H202.946V659.232Z" fill="white"/>
</mask>
<g mask="url(#mask9_44_261)">
<mask id="mask10_44_261" style="mask-type:luminance" maskUnits="userSpaceOnUse" x="99" y="662" width="103" height="93">
<path d="M99.7236 662.903H201.985V754.892H99.7236V662.903Z" fill="white"/>
</mask>
<g mask="url(#mask10_44_261)">
<mask id="mask11_44_261" style="mask-type:luminance" maskUnits="userSpaceOnUse" x="99" y="662" width="103" height="93">
<path d="M153.029 664.59L163.07 694.877C163.306 695.572 163.959 695.955 164.665 695.955L200.172 695.729C201.767 695.729 202.42 697.66 201.133 698.582L172.224 718.378C171.662 718.778 171.426 719.544 171.662 720.153L182.899 752.439C183.389 753.918 181.703 755.136 180.416 754.214L152.141 734.417C151.271 733.791 150.22 733.791 149.332 734.417L121.147 754.301C119.86 755.223 118.102 753.988 118.664 752.526L129.902 720.24C130.155 719.613 129.902 718.848 129.34 718.465L100.43 698.651C99.1617 697.729 99.7961 695.799 101.409 695.799L136.898 696.042C137.623 696.042 138.257 695.572 138.493 694.964L148.462 664.59C149.259 662.364 152.304 662.364 153.029 664.59Z" fill="white"/>
</mask>
<g mask="url(#mask11_44_261)">
<path d="M99.7236 662.903H201.985V754.596H99.7236V662.903Z" fill="#114494"/>
</g>
</g>
</g>
</g>
</g>
<mask id="mask12_44_261" style="mask-type:luminance" maskUnits="userSpaceOnUse" x="1387" y="669" width="103" height="93">
<path d="M1387.23 669.496H1489.51V761.572H1387.23V669.496Z" fill="white"/>
</mask>
<g mask="url(#mask12_44_261)">
<mask id="mask13_44_261" style="mask-type:luminance" maskUnits="userSpaceOnUse" x="1387" y="669" width="103" height="93">
<path d="M1440.56 671.201L1450.6 701.487C1450.83 702.183 1451.47 702.565 1452.19 702.565L1487.68 702.322C1489.29 702.322 1489.93 704.253 1488.66 705.175L1459.75 724.989C1459.19 725.371 1458.94 726.137 1459.19 726.763L1470.43 759.05C1470.92 760.511 1469.23 761.746 1467.94 760.824L1439.67 741.01C1438.8 740.401 1437.75 740.401 1436.86 741.01L1408.67 760.894C1407.39 761.816 1405.63 760.598 1406.19 759.119L1417.43 726.833C1417.66 726.224 1417.43 725.441 1416.87 725.058L1387.96 705.262C1386.67 704.34 1387.32 702.409 1388.92 702.409L1424.43 702.635C1425.13 702.635 1425.78 702.183 1426.02 701.556L1435.97 671.201C1436.79 668.957 1439.83 668.957 1440.56 671.201Z" fill="white"/>
</mask>
<g mask="url(#mask13_44_261)">
<mask id="mask14_44_261" style="mask-type:luminance" maskUnits="userSpaceOnUse" x="1386" y="668" width="107" height="94">
<path d="M1492.87 668.139H1386.15V761.659H1492.87V668.139Z" fill="white"/>
</mask>
<g mask="url(#mask14_44_261)">
<mask id="mask15_44_261" style="mask-type:luminance" maskUnits="userSpaceOnUse" x="1387" y="669" width="103" height="93">
<path d="M1387.23 669.496H1489.51V761.311H1387.23V669.496Z" fill="white"/>
</mask>
<g mask="url(#mask15_44_261)">
<mask id="mask16_44_261" style="mask-type:luminance" maskUnits="userSpaceOnUse" x="1387" y="669" width="103" height="93">
<path d="M1440.56 671.201L1450.6 701.487C1450.83 702.183 1451.47 702.565 1452.19 702.565L1487.68 702.322C1489.29 702.322 1489.93 704.253 1488.66 705.175L1459.75 724.989C1459.19 725.371 1458.94 726.137 1459.19 726.763L1470.43 759.05C1470.92 760.511 1469.23 761.746 1467.94 760.824L1439.67 741.01C1438.8 740.401 1437.75 740.401 1436.86 741.01L1408.67 760.894C1407.39 761.816 1405.63 760.598 1406.19 759.119L1417.43 726.833C1417.66 726.224 1417.43 725.441 1416.87 725.058L1387.96 705.262C1386.67 704.34 1387.32 702.409 1388.92 702.409L1424.43 702.635C1425.13 702.635 1425.78 702.183 1426.02 701.556L1435.97 671.201C1436.79 668.957 1439.83 668.957 1440.56 671.201Z" fill="white"/>
</mask>
<g mask="url(#mask16_44_261)">
<path d="M1387.23 669.496H1489.51V761.207H1387.23V669.496Z" fill="#114494"/>
</g>
</g>
</g>
</g>
</g>
<mask id="mask17_44_261" style="mask-type:luminance" maskUnits="userSpaceOnUse" x="119" y="944" width="1337" height="508">
<path d="M1455.75 944.246H119.425V1451.93H1455.75V944.246Z" fill="white"/>
</mask>
<g mask="url(#mask17_44_261)">
<path d="M236.001 967.482L246.296 962.82L259.201 988.983L248.906 993.645L244.701 985.156L181.191 1041.1L266.669 1029.69L262.464 1021.2L272.759 1016.54L285.664 1042.7L275.369 1047.36L272.251 1041.1L173.361 1054.39L165.604 1038.67L239.046 973.814L236.001 967.482Z" fill="#114494"/>
<path d="M210.557 1118.54L215.197 1098.36L265.729 1065.45L287.044 1068.72L309.519 1100.52L304.807 1120.77L254.274 1153.68L233.032 1150.34L210.557 1118.54ZM223.824 1116.31L239.992 1139.28L250.359 1141.08L294.149 1112.56L296.324 1102.81L280.084 1079.78L269.717 1077.97L225.927 1106.5L223.824 1116.31Z" fill="#114494"/>
<path d="M330.387 1126.95L353.514 1151.51L345.032 1158.82L337.419 1150.68L285.727 1195.56L306.534 1217.68L318.859 1207.04L326.109 1214.69L305.374 1232.65L261.802 1186.44L270.212 1179.14L276.882 1186.23L328.574 1141.35L321.904 1134.25L330.387 1126.95Z" fill="#114494"/>
<path d="M382.563 1180.48L408.808 1201.91L401.413 1210.26L392.713 1203.16L347.473 1254.03L371.108 1273.37L381.838 1261.27L390.03 1268.02L371.905 1288.4L322.533 1247.98L329.928 1239.7L337.54 1245.89L382.78 1195.02L375.168 1188.83L382.563 1180.48Z" fill="#114494"/>
<path d="M441.061 1227.24L498.119 1262.24L483.111 1284.72L473.541 1278.8L482.386 1265.51L454.329 1248.32L438.669 1271.91L466.726 1289.1L460.564 1298.28L432.506 1281.1L416.846 1304.69L444.904 1321.87L453.749 1308.51L463.319 1314.43L448.311 1336.97L391.254 1301.97L397.416 1292.79L405.826 1297.87L443.309 1241.5L434.899 1236.42L441.061 1227.24Z" fill="#114494"/>
<path d="M523.843 1372.09L488.681 1356.79L493.393 1346.84L504.993 1351.92L512.243 1336.54L511.156 1281.22L502.891 1277.6L507.603 1267.65L535.008 1279.62L530.296 1289.57L522.538 1286.16L523.263 1327.91L556.613 1300.98L548.856 1297.64L553.568 1287.69L581.046 1299.59L576.333 1309.54L568.068 1305.92L524.351 1341.41L516.956 1357.06L528.556 1362.14L523.843 1372.09Z" fill="#114494"/>
<path d="M591.316 1302.94L646.053 1317.83L656.058 1336.2L650.621 1354.57L641.051 1360.06L648.083 1372.87L642.066 1393.32L623.578 1403.97L566.086 1388.31L569.203 1377.81L578.773 1380.38L597.768 1316.02L588.198 1313.44L591.316 1302.94ZM599.798 1355.47L591.606 1383.03L621.476 1391.1L631.553 1385.6L634.961 1374.26L628.943 1363.4L599.798 1355.47ZM610.166 1320.26L602.843 1344.96L629.886 1352.27L640.181 1346.77L642.863 1337.59L637.353 1327.64L610.166 1320.26Z" fill="#114494"/>
<path d="M720.035 1419.79L721.413 1408.94L730.693 1410.05L726.778 1392.58L691.47 1388.41L683.278 1404.48L692.703 1405.6L691.325 1416.45L661.383 1412.97L662.76 1402.12L670.228 1402.95L702.635 1339.35L696.69 1338.73L698.068 1327.87L735.695 1332.25L734.318 1343.11L728.3 1342.41L743.67 1411.58L751.355 1412.48L749.978 1423.34L720.035 1419.79ZM715.395 1341.3L696.69 1378.04L724.385 1381.31L715.395 1341.3Z" fill="#114494"/>
<path d="M771.617 1334.67L806.054 1334.04L806.272 1344.97L794.889 1345.18L796.194 1412.05L827.224 1411.49L826.934 1395.63L837.737 1395.49L838.244 1422.28L773.357 1423.39L773.139 1412.46L783.072 1412.33L781.767 1345.46L771.834 1345.6L771.617 1334.67Z" fill="#114494"/>
<path d="M847.988 1332.12L882.063 1327.25L883.73 1338.03L872.493 1339.63L882.715 1405.81L913.383 1401.49L910.99 1385.77L921.72 1384.24L925.78 1410.75L861.545 1419.86L859.878 1409.08L869.738 1407.69L859.515 1341.51L849.655 1342.9L847.988 1332.12Z" fill="#114494"/>
<path d="M1041.88 1342.13L1052.47 1338.23L1058.85 1354.3L1050.58 1373.44L1017.09 1385.69L997.732 1376.64L975.982 1321.81L984.247 1302.74L1017.74 1290.5L1037.1 1299.47L1043.48 1315.55L1032.89 1319.44L1028.62 1308.59L1016.87 1303.3L993.817 1311.72L989.612 1321.04L1008.46 1368.5L1017.96 1372.74L1040.94 1364.39L1046.23 1352.98L1041.88 1342.13Z" fill="#114494"/>
<path d="M1046.76 1278.69L1105.99 1247.17L1119.47 1270.55L1109.54 1275.83L1101.57 1261.99L1072.42 1277.5L1086.56 1302L1115.7 1286.48L1121.21 1296.01L1092.07 1311.53L1106.21 1336.02L1135.35 1320.51L1127.3 1306.59L1137.24 1301.3L1150.79 1324.75L1091.56 1356.27L1086.05 1346.74L1094.75 1342.08L1060.97 1283.56L1052.27 1288.22L1046.76 1278.69Z" fill="#114494"/>
<path d="M1190.59 1285.04L1198.42 1279.13L1205.52 1287.68L1179.71 1307.38L1172.61 1298.82L1180.37 1292.9L1136.94 1240.65L1129.18 1246.56L1122.08 1238L1145.2 1220.33L1226.62 1254.42L1184.79 1204.05L1177.03 1209.96L1169.93 1201.4L1195.74 1181.71L1202.84 1190.27L1195.01 1196.25L1245.54 1257.07L1230.25 1268.76L1148.83 1234.8L1190.59 1285.04Z" fill="#114494"/>
<path d="M1309.96 1192.89L1282.05 1222.39L1273.64 1215.01L1283.21 1204.85L1231.66 1159.9L1218.47 1173.89L1230.65 1184.54L1223.4 1192.19L1202.73 1174.24L1252.47 1121.7L1273.13 1139.65L1265.81 1147.38L1253.63 1136.73L1240.43 1150.65L1291.98 1195.6L1301.55 1185.51L1309.96 1192.89Z" fill="#114494"/>
<path d="M1260.1 1112.08L1298.16 1058.36L1321.14 1073.39L1314.76 1082.43L1301.13 1073.53L1282.43 1099.9L1306.57 1115.62L1325.27 1089.25L1334.7 1095.45L1315.99 1121.82L1340.06 1137.54L1358.77 1111.17L1345.14 1102.26L1351.52 1093.22L1374.57 1108.25L1336.51 1161.97L1327.09 1155.84L1332.67 1147.98L1275.03 1110.34L1269.45 1118.2L1260.1 1112.08Z" fill="#114494"/>
<path d="M1307.94 1042.53L1332.37 993.198L1352.82 986.866L1378.48 998.556L1385.95 1017.2L1411.47 1014.77L1414.66 1008.23L1424.95 1012.89L1414.08 1034.81L1403.78 1030.15L1405.52 1026.74L1380.8 1029.1L1371.88 1047.19L1391.1 1055.96L1394.72 1048.52L1405.02 1053.18L1391.46 1080.59L1381.16 1075.93L1385.44 1067.3L1322.51 1038.64L1318.23 1047.26L1307.94 1042.53ZM1328.89 1027.57L1360.79 1042.12L1372.83 1017.69L1368.77 1007.05L1352.09 999.461L1341 1003.08L1328.89 1027.57Z" fill="#114494"/>
</g>
<mask id="mask18_44_261" style="mask-type:luminance" maskUnits="userSpaceOnUse" x="96" y="62" width="1402" height="553">
<path d="M1497.51 62.4858H96.2256V614.699H1497.51V62.4858Z" fill="white"/>
</mask>
<g mask="url(#mask18_44_261)">
<path d="M132.628 551.35L153.87 500.555L173.88 492.97L204.33 504.66L213.393 523.447L200.778 553.647L229.923 564.85L234.128 554.69L244.713 558.726L231.88 589.482L221.295 585.446L225.065 576.54L146.983 546.549L143.213 555.456L132.628 551.35ZM152.638 535.137L189.395 549.263L199.835 524.143L195.195 513.775L174.025 505.634L163.15 509.879L152.638 535.137Z" fill="#100F0D"/>
<path d="M171.512 463.462L200.367 416.145L221.392 411.483L248.434 426.722L254.524 446.553L290.557 449.893L294.327 443.77L304.114 449.267L290.557 471.464L280.769 465.967L283.597 461.374L247.564 458.034L237.414 474.665L265.762 490.599L270.039 483.502L279.827 488.999L263.804 515.301L254.017 509.804L259.092 501.454L186.519 460.609L181.444 468.959L171.512 463.462ZM193.914 450.241L226.829 468.68L241.039 445.37L237.994 434.445L219.579 424.077L208.197 426.791L193.914 450.241Z" fill="#100F0D"/>
<path d="M322.129 426.962L300.596 428.562L241.944 382.846L239.116 362.319L264.419 332.398L285.951 330.798L344.604 376.514L347.431 397.041L322.129 426.962ZM316.111 415.481L334.381 393.84L333.149 383.751L280.876 343.044L270.509 344.019L252.239 365.52L253.399 375.609L305.671 416.316L316.111 415.481Z" fill="#100F0D"/>
<path d="M330.007 283.421L322.684 290.032L314.854 282.03L337.982 261.155L345.812 269.157L339.577 274.793L394.242 330.668L394.097 351.404L374.232 369.357L352.627 368.174L335.444 350.639L343.854 343.124L357.049 356.553L369.809 357.18L381.627 346.533L381.844 336.374L330.007 283.421Z" fill="#100F0D"/>
<path d="M360.72 242.958L415.893 205.035L432.205 226.885L422.925 233.217L413.283 220.274L386.168 238.923L407.338 267.313L434.453 248.664L441.05 257.501L413.935 276.15L435.178 304.54L462.293 285.891L452.65 273.018L461.93 266.686L478.17 288.466L422.998 326.389L416.4 317.482L424.52 311.846L375.51 246.229L367.39 251.865L360.72 242.958Z" fill="#100F0D"/>
<path d="M538.658 256.841L501.755 275.42L496.463 265.748L509.15 259.416L470 187.954L451.295 197.348L458.98 211.403L449.41 216.274L436.36 192.546L504.438 158.172L517.488 181.9L507.99 186.701L500.305 172.646L481.6 182.039L520.75 253.501L533.365 247.169L538.658 256.841Z" fill="#100F0D"/>
<path d="M577.086 240.685L557.801 231.361L532.208 163.099L540.908 144.103L578.681 131.021L597.966 140.415L623.558 208.676L614.858 227.603L577.086 240.685ZM578.101 227.812L605.433 218.348L609.856 209.163L587.091 148.417L577.521 143.964L550.333 153.358L545.983 162.612L568.748 223.358L578.101 227.812Z" fill="#100F0D"/>
<path d="M691.428 198.213L702.665 196.613L690.413 116.731L679.175 118.332L677.508 107.477L712.96 102.467L714.628 113.322L703.39 114.922L715.643 194.804L726.88 193.203L728.548 203.989L693.095 208.999L691.428 198.213Z" fill="#100F0D"/>
<path d="M768.108 189.693L778.041 189.623L778.186 200.548L745.126 200.826L744.981 189.902L754.986 189.832L754.188 109.116L744.183 109.185L744.038 98.191L773.691 97.9127L816.248 184.683L815.451 108.489L805.518 108.628L805.373 97.6343L838.433 97.2864L838.578 108.281L828.573 108.42L829.516 200.061L809.868 200.2L767.311 113.638L768.108 189.693Z" fill="#100F0D"/>
<path d="M905.323 209.4L864.143 203.555L865.811 192.769L879.948 194.787L892.201 114.906L871.321 111.983L868.928 127.709L858.198 126.178L862.258 99.5974L938.383 110.383L934.323 136.964L923.666 135.433L926.058 119.707L905.178 116.715L892.926 196.597L906.991 198.614L905.323 209.4Z" fill="#100F0D"/>
<path d="M962.068 115.609L1027.17 133.84L1019.34 159.655L1008.47 156.594L1013.11 141.355L981.063 132.379L970.913 165.848L1002.96 174.824L999.768 185.262L967.723 176.286L957.5 209.825L989.545 218.801L994.185 203.562L1005.06 206.624L997.23 232.37L932.125 214.139L935.315 203.632L944.885 206.346L968.448 128.899L958.878 126.186L962.068 115.609Z" fill="#100F0D"/>
<path d="M1082.67 222.495L1064.76 214.702L1069.47 204.751L1097.75 216.998L1081.51 251.233L1061.57 259.096L1027.57 244.275L1020.46 224.722L1051.64 158.687L1071.72 150.824L1105.72 165.645L1112.68 185.198L1105.29 200.855L1094.92 196.401L1099.92 185.825L1095.57 174.135L1071.79 163.836L1061.93 167.524L1034.17 226.322L1037.65 235.785L1061.43 246.153L1073.61 241.7L1082.67 222.495Z" fill="#100F0D"/>
<path d="M1147.44 185.968L1195.36 215.749L1199.2 236.137L1182.24 261.396L1161.29 266.336L1156.21 300.641L1162.37 304.468L1156.21 313.653L1133.81 299.736L1139.97 290.551L1144.54 293.404L1149.61 259.1L1132.79 248.662L1114.96 275.034L1122.14 279.488L1115.97 288.673L1089.37 272.112L1095.53 262.927L1103.94 268.146L1149.69 200.371L1141.28 195.153L1147.44 185.968ZM1160.2 207.956L1139.46 238.712L1163.1 253.394L1174.63 250.958L1186.23 233.771L1183.98 222.708L1160.2 207.956Z" fill="#100F0D"/>
<path d="M1250.82 256.26L1279.24 280.545L1271.63 288.756L1266.77 284.581L1229.65 360.914L1234.94 365.437L1227.4 373.578L1204.78 354.303L1212.32 346.162L1219.79 352.494L1229.58 332.593L1202.83 309.7L1183.32 321.321L1190.72 327.653L1183.18 335.794L1160.63 316.52L1168.17 308.378L1173.54 312.971L1248.14 268.646L1243.21 264.471L1250.82 256.26ZM1256.04 278.11L1212.9 303.716L1234.51 322.225L1256.04 278.11Z" fill="#100F0D"/>
<path d="M1315.03 314.108L1353.82 358.989L1351.14 379.516L1292.92 425.789L1271.46 424.467L1232.67 379.586L1241.45 372.628L1247.83 380.003L1312.57 328.512L1306.19 321.136L1315.03 314.108ZM1256.89 389.188L1277.19 412.708L1287.7 413.612L1339.54 372.419L1340.77 362.399L1320.33 338.741L1256.89 389.188Z" fill="#100F0D"/>
<path d="M1298.43 461.405L1304.23 441.504L1368.97 404.138L1390.07 408.591L1410.8 441.643L1404.93 461.613L1340.19 498.98L1319.16 494.457L1298.43 461.405ZM1311.84 459.874L1326.7 483.741L1337 486.107L1394.71 452.915L1397.39 443.104L1382.53 419.307L1372.23 417.01L1314.52 450.202L1311.84 459.874Z" fill="#100F0D"/>
<path d="M1433.82 482.554L1455.42 533.28L1446.43 552.068L1417.43 563.479L1397.35 556.103L1372.77 581.501L1375.53 588.042L1365.01 592.217L1354.86 568.489L1365.38 564.314L1367.48 569.185L1392.06 543.787L1384.44 525.904L1354.07 537.803L1357.33 545.457L1346.82 549.632L1334.85 521.451L1345.37 517.276L1349.14 526.183L1427 495.636L1423.23 486.729L1433.82 482.554ZM1431.13 507.534L1395.83 521.451L1406.56 546.501L1417.43 550.815L1437.15 543.022L1441.94 532.723L1431.13 507.534Z" fill="#100F0D"/>
</g>
<path d="M629.5 675.556C661.942 641.891 680.053 626.823 723.5 609.556C723.5 609.556 749.795 587.65 764 580.056C776.219 573.525 791.623 567.458 807.5 562.556C815.479 560.043 822.101 558.199 828.483 556.854C834.03 555.574 839.677 554.465 845.5 553.556C870.388 549.672 876.048 547.699 903.5 547.056C934.698 546.326 958.225 552.768 988 562.556C1027.58 575.569 1045.95 590.342 1073.5 618.056C1091.04 635.7 1103.81 662.5 1109 671.5C1116.5 684.5 1125.42 721.132 1127 736.056C1127.37 739.5 1129.45 778.117 1123 804C1118.07 823.782 1113.54 830.5 1104.5 851C1089.5 885 1048 918.242 1029 928C1010 937.758 952.798 956.174 931.5 954.556C900.234 954.615 884.869 951.563 856 939.556C843.978 934.556 796.652 906.536 773.5 873C767.386 864.143 764.036 856.231 760 848.5C760 848.5 747.5 850.996 730 856.498C722 859.013 683.714 864.76 665 862C651.434 859.999 633.5 856.498 633.5 856.498C623.17 859.731 615.527 861.569 613 862C592.5 865.5 567.72 866.815 550 865.5C531.882 864.155 504 858.556 504 858.556C492.974 860.216 489.203 858.363 475 858.556C475 858.556 445.839 860.892 428 856.498C422.843 855.227 417 852.5 417 852.5C417 852.5 474 845.112 504 822.556C534 800 553.656 777.085 569.782 754.056C587.017 729.447 602.12 703.969 629.5 675.556Z" fill="#F9CC02"/>
<path d="M723.5 609.556C680.053 626.823 661.942 641.891 629.5 675.556C602.12 703.969 587.017 729.447 569.782 754.056M723.5 609.556C775.973 588.703 812.138 588.292 866.5 603.556C901.98 613.519 921.965 623.236 950.5 646.556C979.035 669.877 1013.5 726.5 1013.5 726.5L1080.5 695.556M723.5 609.556C723.5 609.556 749.795 587.65 764 580.056C776.219 573.525 791.623 567.458 807.5 562.556M1109 671.5C1103.81 662.5 1091.04 635.7 1073.5 618.056C1045.95 590.342 1027.58 575.569 988 562.556C958.225 552.768 934.698 546.326 903.5 547.056C876.048 547.699 870.388 549.672 845.5 553.556C832.222 555.629 819.865 558.739 807.5 562.556M1109 671.5C1106.6 680 1090.77 687.369 1080.5 695.556M1109 671.5C1116.5 684.5 1125.42 721.132 1127 736.056M1080.5 695.556C1080.5 695.556 1068.46 677.272 1060.75 665.556C1053.04 653.841 1049.74 646.528 1041 635.556C1023.85 614.018 1011.39 603.583 988 589.056C965.173 574.88 950.443 569.557 924.5 562.556C900.319 556.031 886.039 552.965 861 553.556C839.53 554.063 827.984 556.103 807.5 562.556M1080.5 695.556L940 760.056M1127 736.056C1097.09 775.57 1075.89 794.661 1030.5 814.556C989.706 832.437 919 835.556 919 835.556M1127 736.056C1127.37 739.5 1129.45 778.117 1123 804C1118.07 823.782 1113.54 830.5 1104.5 851M1104.5 851C1089.5 885 1048 918.242 1029 928C1010 937.758 952.798 956.174 931.5 954.556M1104.5 851C1076.63 871.248 1058.04 883.227 1025.5 894.556C987.92 907.643 924.5 908.056 924.5 908.056M931.5 954.556C900.234 954.615 884.869 951.563 856 939.556M931.5 954.556C928.767 936.397 924.5 908.056 924.5 908.056M856 939.556C843.978 934.556 796.652 906.536 773.5 873M856 939.556C856 939.556 836.072 876.833 837 835.556C837.537 811.682 839.209 798.037 845.5 775C853.894 744.26 880 701.056 880 701.056M773.5 873C773.5 873 775.052 837.329 776 814.556C777.319 782.9 781.039 765.879 790 736.056C797.91 709.732 817 671.056 817 671.056M773.5 873C767.386 864.143 764.036 856.231 760 848.5M740.5 792.5C736.015 765.732 740.55 736.056 743.5 723.056C748.947 699.053 769.5 663.641 769.5 663.641M740.5 792.5C740.5 792.5 711.174 821.321 684.5 835.556C666.601 845.108 647.561 852.097 633.5 856.498M740.5 792.5C744.414 815.859 751.119 831.488 760 848.5M769.5 663.641C769.5 663.641 794.976 665.348 817 671.056M769.5 663.641C769.5 663.641 739.488 659.415 723.5 659.556C693.856 659.819 651 682.056 651 682.056L609 715.056L569.782 754.056M769.5 663.641H755.5C755.5 663.641 734.267 710.261 714.5 736.056C686.133 773.075 664.621 790.778 624.5 814.556C597.194 830.74 580.53 838.367 550 847.056C535.162 851.279 515.976 856.753 504 858.556M817 671.056C843.379 677.893 857.395 685.838 880 701.056M880 701.056C904.409 717.489 918.521 739.944 940 760.056M940 760.056C929.192 791.247 920.561 802.583 919 835.556M919 835.556C917.658 863.919 924.5 908.056 924.5 908.056M569.782 754.056C553.656 777.085 534 800 504 822.556C474 845.112 417 852.5 417 852.5C417 852.5 422.843 855.227 428 856.498C445.839 860.892 475 858.556 475 858.556C489.203 858.363 492.974 860.217 504 858.556M504 858.556C504 858.556 531.882 864.155 550 865.5C567.72 866.815 592.5 865.5 613 862C615.527 861.569 623.17 859.731 633.5 856.498M760 848.5C760 848.5 747.5 850.996 730 856.498C722 859.013 683.714 864.76 665 862C651.434 859.999 633.5 856.498 633.5 856.498" stroke="#062F6E" stroke-width="28"/>
<path d="M492 846C492 846 531.386 818.345 549.5 799C566.799 780.525 567.658 776.996 582 760.5C589.825 751.5 603.767 730.965 613.5 721.5C623.36 711.912 631.524 703.787 642.5 695.5C659.531 682.641 663.019 681.993 683.5 676C701.866 670.626 735.5 673.5 735.5 673.5C735.5 673.5 720.584 709.255 706 728.5C691.905 747.1 682.299 756.405 664.5 771.5C637.885 794.071 616 804.5 587.5 820C572.149 828.349 547 835 530.5 839.5C514.177 843.952 492 846 492 846Z" fill="white"/>
<path d="M740 839L732 818.5C732 818.5 724.61 824.938 720 828.5C714.683 832.608 711.058 835.225 705.5 839C701.065 842.013 690 848.5 690 848.5C690 848.5 698.221 847.543 702.5 847C707.213 846.402 713.342 845.934 718 845C726.312 843.334 740 839 740 839Z" fill="white"/>
<path d="M677.5 824C698.446 813.498 726.5 787.5 726.5 787.5C726.5 787.5 724.985 774.832 725 767C725.015 759.362 726.5 743 726.5 743C726.5 743 705.261 767.441 691 782.5C685.398 788.416 679.515 792.646 673 798C662.161 806.907 658.781 809.383 647 817C637.213 823.327 630.898 826.668 620.5 832.5C608.314 839.335 581.5 851.5 581.5 851.5C581.5 851.5 616.284 849.486 632.5 843C650 836 661.106 832.219 677.5 824Z" fill="white"/>
</svg>
